<svg width="100" height="100" viewBox="0 0 100 100" fill="none" xmlns="http://www.w3.org/2000/svg">
<path d="M99.9986 0H44.3049V1.2106H99.9986V0Z" fill="currentColor"/>
<path d="M99.9986 12.748H44.3049V13.9586H99.9986V12.748Z" fill="currentColor"/>
<path d="M47.3321 2.96802H44.3056V5.99452H47.3321V2.96802Z" fill="currentColor"/>
<path d="M47.3321 7.96191H44.3056V10.9884H47.3321V7.96191Z" fill="currentColor"/>
<path d="M53.1843 2.96802H50.1578V5.99452H53.1843V2.96802Z" fill="currentColor"/>
<path d="M53.1843 7.96191H50.1578V10.9884H53.1843V7.96191Z" fill="currentColor"/>
<path d="M59.0358 2.96802H56.0093V5.99452H59.0358V2.96802Z" fill="currentColor"/>
<path d="M59.0358 7.96191H56.0093V10.9884H59.0358V7.96191Z" fill="currentColor"/>
<path d="M64.8884 2.96802H61.8619V5.99452H64.8884V2.96802Z" fill="currentColor"/>
<path d="M64.8884 7.96191H61.8619V10.9884H64.8884V7.96191Z" fill="currentColor"/>
<path d="M70.7398 2.96802H67.7133V5.99452H70.7398V2.96802Z" fill="currentColor"/>
<path d="M70.7398 7.96191H67.7133V10.9884H70.7398V7.96191Z" fill="currentColor"/>
<path d="M76.5911 2.96802H73.5646V5.99452H76.5911V2.96802Z" fill="currentColor"/>
<path d="M76.5911 7.96191H73.5646V10.9884H76.5911V7.96191Z" fill="currentColor"/>
<path d="M82.4437 2.96802H79.4172V5.99452H82.4437V2.96802Z" fill="currentColor"/>
<path d="M82.4437 7.96191H79.4172V10.9884H82.4437V7.96191Z" fill="currentColor"/>
<path d="M88.2951 2.96802H85.2686V5.99452H88.2951V2.96802Z" fill="currentColor"/>
<path d="M88.2951 7.96191H85.2686V10.9884H88.2951V7.96191Z" fill="currentColor"/>
<path d="M94.1477 2.96802H91.1212V5.99452H94.1477V2.96802Z" fill="currentColor"/>
<path d="M94.1477 7.96191H91.1212V10.9884H94.1477V7.96191Z" fill="currentColor"/>
<path d="M99.999 2.96802H96.9725V5.99452H99.999V2.96802Z" fill="currentColor"/>
<path d="M99.999 7.96191H96.9725V10.9884H99.999V7.96191Z" fill="currentColor"/>
<path d="M1.21066 44.3052H6.10352e-05V99.9989H1.21066V44.3052Z" fill="currentColor"/>
<path d="M13.9586 44.3052H12.748V99.9989H13.9586V44.3052Z" fill="currentColor"/>
<path d="M2.97021 96.9737V100H5.99672V96.9737H2.97021Z" fill="currentColor"/>
<path d="M7.96393 96.9737V100H10.9904V96.9737H7.96393Z" fill="currentColor"/>
<path d="M5.99672 91.1211H2.97021V94.1476H5.99672V91.1211Z" fill="currentColor"/>
<path d="M10.9904 91.1211H7.96393V94.1476H10.9904V91.1211Z" fill="currentColor"/>
<path d="M5.99672 85.2686H2.97021V88.2951H5.99672V85.2686Z" fill="currentColor"/>
<path d="M10.9904 85.2686H7.96393V88.2951H10.9904V85.2686Z" fill="currentColor"/>
<path d="M5.99672 79.416H2.97021V82.4425H5.99672V79.416Z" fill="currentColor"/>
<path d="M10.9904 79.416H7.96393V82.4425H10.9904V79.416Z" fill="currentColor"/>
<path d="M5.99672 73.5659H2.97021V76.5924H5.99672V73.5659Z" fill="currentColor"/>
<path d="M10.9904 73.5659H7.96393V76.5924H10.9904V73.5659Z" fill="currentColor"/>
<path d="M5.99672 67.7134H2.97021V70.7399H5.99672V67.7134Z" fill="currentColor"/>
<path d="M10.9904 67.7134H7.96393V70.7399H10.9904V67.7134Z" fill="currentColor"/>
<path d="M5.99672 61.8608H2.97021V64.8873H5.99672V61.8608Z" fill="currentColor"/>
<path d="M10.9904 61.8608H7.96393V64.8873H10.9904V61.8608Z" fill="currentColor"/>
<path d="M5.99672 56.0103H2.97021V59.0368H5.99672V56.0103Z" fill="currentColor"/>
<path d="M10.9904 56.0103H7.96393V59.0368H10.9904V56.0103Z" fill="currentColor"/>
<path d="M5.99672 50.1582H2.97021V53.1847H5.99672V50.1582Z" fill="currentColor"/>
<path d="M10.9904 50.1582H7.96393V53.1847H10.9904V50.1582Z" fill="currentColor"/>
<path d="M2.97021 44.3055V47.332H5.99672V44.3055H2.97021Z" fill="currentColor"/>
<path d="M7.96393 44.3055V47.332H10.9904V44.3055H7.96393Z" fill="currentColor"/>
<path d="M33.004 24.5588C33.9858 23.0069 41.2803 20.6401 41.2803 20.6401C41.2803 20.6401 33.9858 18.2734 33.004 16.7214C33.004 16.7214 38.8954 13.2058 40.4383 8.71692C40.4383 8.71692 38.1938 11.9432 33.8453 12.5043C32.073 12.7331 29.768 13.0085 27.5702 13.71C28.2717 11.5122 28.5472 9.20722 28.776 7.4349C29.3371 3.08642 32.5633 0.841972 32.5633 0.841972C28.0744 2.38488 24.5588 8.27627 24.5588 8.27627C23.0069 7.29447 20.6401 0 20.6401 0C20.6401 0 18.2734 7.29447 16.7214 8.27627C16.7214 8.27627 13.2058 2.38488 8.71693 0.841972C8.71693 0.841972 11.9432 3.08642 12.5043 7.4349C12.7331 9.20722 13.0085 11.5122 13.71 13.71C11.5122 13.0085 9.2072 12.7331 7.43488 12.5043C3.0864 11.9432 0.841967 8.71692 0.841967 8.71692C2.38488 13.2058 8.27625 16.7214 8.27625 16.7214C7.29446 18.2734 0 20.6401 0 20.6401C0 20.6401 7.29446 23.0069 8.27625 24.5588C8.27625 24.5588 2.38488 28.0744 0.841967 32.5633C0.841967 32.5633 3.0864 29.3371 7.43488 28.776C9.2072 28.5472 11.5122 28.2718 13.71 27.5702C13.0085 29.7681 12.7331 32.073 12.5043 33.8454C11.9432 38.1938 8.71693 40.4383 8.71693 40.4383C13.2058 38.8954 16.7214 33.004 16.7214 33.004C18.2734 33.9858 20.6401 41.2803 20.6401 41.2803C20.6401 41.2803 23.0069 33.9858 24.5588 33.004C24.5588 33.004 28.0744 38.8954 32.5633 40.4383C32.5633 40.4383 29.3371 38.1938 28.776 33.8454C28.5472 32.073 28.2717 29.7681 27.5702 27.5702C29.768 28.2718 32.073 28.5472 33.8453 28.776C38.1938 29.3371 40.4383 32.5633 40.4383 32.5633C38.8954 28.0744 33.004 24.5588 33.004 24.5588ZM20.6401 28.1876C16.4714 28.1876 13.092 24.8082 13.092 20.6395C13.092 16.4708 16.4714 13.0914 20.6401 13.0914C24.8088 13.0914 28.1882 16.4708 28.1882 20.6395C28.1882 24.8082 24.8088 28.1876 20.6401 28.1876Z" fill="currentColor"/>
<path d="M20.6401 24.0503C22.5236 24.0503 24.0504 22.5234 24.0504 20.64C24.0504 18.7566 22.5236 17.2297 20.6401 17.2297C18.7567 17.2297 17.2299 18.7566 17.2299 20.64C17.2299 22.5234 18.7567 24.0503 20.6401 24.0503Z" fill="currentColor"/>
</svg>
