<svg width="18" height="18" viewBox="0 0 18 18" fill="none" xmlns="http://www.w3.org/2000/svg">
<path fill-rule="evenodd" clip-rule="evenodd" d="M9.50355 15.8828C8.07679 15.8828 7.41374 15.6836 6.26122 14.8867C5.53221 15.7832 3.2237 16.4838 3.12303 15.2851C3.12303 14.3853 2.91474 13.6249 2.67869 12.7947C2.3975 11.772 2.07812 10.6331 2.07812 8.98281C2.07812 5.04138 5.45931 2.07617 9.46536 2.07617C13.4749 2.07617 16.6165 5.18748 16.6165 9.01934C16.623 10.8312 15.8777 12.5715 14.5441 13.8583C13.2106 15.145 11.3978 15.8732 9.50355 15.8828ZM9.56256 5.48301C7.61161 5.38671 6.09112 6.67839 5.75439 8.70389C5.47667 10.3807 5.96962 12.4229 6.38966 12.5291C6.59101 12.5756 7.09784 12.1838 7.41374 11.8816C7.9361 12.2268 8.54438 12.4341 9.17723 12.4826C10.149 12.5273 11.1003 12.2056 11.8267 11.5865C12.5531 10.9675 12.9965 10.1006 13.0618 9.17208C13.0998 8.24168 12.7544 7.3342 12.1 6.6449C11.4456 5.9556 10.5344 5.53957 9.56256 5.48633V5.48301Z" fill="currentColor"/>
</svg>
