<svg width="59" height="59" viewBox="0 0 59 59" fill="none" xmlns="http://www.w3.org/2000/svg">
<path d="M42.25 44.2506C43.3546 44.2506 44.25 45.1461 44.25 46.2506V47.1673C44.25 48.2719 43.3546 49.1673 42.25 49.1673H16.75C15.6454 49.1673 14.75 48.2719 14.75 47.1673V46.2506C14.75 45.1461 15.6454 44.2506 16.75 44.2506H42.25ZM49.625 27.0423C50.7296 27.0423 51.625 27.9377 51.625 29.0423V29.959C51.625 31.0636 50.7296 31.959 49.625 31.959H9.375C8.27043 31.959 7.375 31.0636 7.375 29.959V29.0423C7.375 27.9377 8.27043 27.0423 9.375 27.0423H49.625ZM42.25 9.83398C43.3546 9.83398 44.25 10.7294 44.25 11.834V12.7507C44.25 13.8552 43.3546 14.7507 42.25 14.7507H16.75C15.6454 14.7507 14.75 13.8552 14.75 12.7507V11.834C14.75 10.7294 15.6454 9.83398 16.75 9.83398H42.25Z" fill="currentColor"/>
</svg>
