<svg width="18" height="18" viewBox="0 0 18 18" fill="none" xmlns="http://www.w3.org/2000/svg">
<path d="M1.61138 8.85743C5.54691 7.14281 8.17123 6.01241 9.48426 5.46625C13.2334 3.90687 14.0124 3.636 14.5201 3.62705C14.6318 3.62508 14.8816 3.65276 15.0433 3.78401C15.1798 3.89483 15.2174 4.04454 15.2354 4.1496C15.2534 4.25468 15.2758 4.49403 15.258 4.68105C15.0548 6.81573 14.1757 11.996 13.7285 14.3869C13.5393 15.3986 13.1667 15.7377 12.8059 15.7709C12.022 15.8431 11.4266 15.2528 10.6673 14.7551C9.47916 13.9763 8.80791 13.4914 7.65456 12.7313C6.32169 11.853 7.18574 11.3702 7.94533 10.5813C8.14416 10.3748 11.5984 7.23298 11.6652 6.94797C11.6735 6.91232 11.6813 6.77945 11.6023 6.70929C11.5234 6.63912 11.407 6.66312 11.3229 6.6822C11.2037 6.70925 9.30553 7.9638 5.62847 10.446C5.08969 10.8159 4.60169 10.9962 4.16445 10.9868C3.68243 10.9763 2.75522 10.7142 2.06593 10.4902C1.22049 10.2153 0.548556 10.07 0.607067 9.6033C0.637543 9.36023 0.972312 9.1116 1.61138 8.85743Z" fill="currentColor"/>
</svg>
