<svg width="18" height="18" viewBox="0 0 18 18" fill="none" xmlns="http://www.w3.org/2000/svg">
<path d="M9.00002 1.5C13.1421 1.5 16.5 4.85786 16.5 9C16.5 13.1421 13.1421 16.5 9.00002 16.5C7.62459 16.5 6.33565 16.1298 5.22741 15.4835L1.50314 16.5L2.51711 12.7736C1.87047 11.6652 1.5 10.3759 1.5 9C1.5 4.85786 4.85786 1.5 9.00002 1.5ZM6.2935 5.48125C6.19646 5.48807 6.10132 5.51177 6.01469 5.55608C5.94971 5.58933 5.88938 5.63738 5.79458 5.72689C5.70507 5.81141 5.65319 5.88523 5.59853 5.9564C5.32126 6.3174 5.17223 6.76054 5.175 7.21574C5.17651 7.5837 5.27209 7.9413 5.42303 8.2752C5.72913 8.9523 6.23392 9.6681 6.90072 10.3319C7.06089 10.4914 7.21781 10.6526 7.38702 10.8015C8.21461 11.5302 9.20087 12.0556 10.2673 12.3362C10.2673 12.3362 10.6873 12.4007 10.6934 12.401C10.8326 12.4085 10.9715 12.3985 11.1107 12.3913C11.3292 12.3801 11.5425 12.321 11.7356 12.2182C11.8597 12.1521 11.9184 12.1192 12.0226 12.0535C12.0226 12.0535 12.0545 12.0319 12.1162 11.986C12.2174 11.9106 12.28 11.8575 12.3642 11.7701C12.4263 11.7056 12.4797 11.6293 12.521 11.5435C12.5796 11.4211 12.6386 11.1874 12.6621 10.9934C12.68 10.8452 12.6746 10.7642 12.6727 10.7141C12.6695 10.6334 12.6028 10.5503 12.5297 10.5151L12.0936 10.319C12.0936 10.319 11.4415 10.0352 11.0426 9.85328C11.0011 9.8343 10.9556 9.82553 10.91 9.82275C10.8099 9.8166 10.6978 9.8427 10.6265 9.91785C10.6227 9.91635 10.5731 9.95925 10.0304 10.6166C10.0005 10.6524 9.93039 10.7302 9.80911 10.7229C9.79081 10.7216 9.77259 10.719 9.75482 10.7143C9.70569 10.7014 9.65784 10.6843 9.61104 10.6645C9.51826 10.6251 9.48571 10.6102 9.42234 10.5829C8.98937 10.3937 8.59202 10.1407 8.24079 9.831C8.14659 9.74805 8.05899 9.65872 7.96869 9.5712C7.65354 9.26572 7.39553 8.94082 7.20359 8.62035C7.19312 8.60288 7.17697 8.5776 7.15957 8.54932C7.12817 8.49825 7.09354 8.4375 7.08268 8.3958C7.0548 8.28547 7.12876 8.19683 7.12876 8.19683C7.12876 8.19683 7.31131 7.99725 7.39613 7.88873C7.47773 7.78425 7.54816 7.6821 7.59301 7.60928C7.68136 7.46725 7.70934 7.32046 7.66292 7.20722C7.4525 6.69424 7.2354 6.18402 7.01166 5.67671C6.9675 5.57659 6.83615 5.50384 6.71671 5.49005C6.67625 5.48538 6.63583 5.48068 6.59521 5.47801C6.49466 5.47311 6.39391 5.47419 6.2935 5.48125Z" fill="currentColor"/>
</svg>
