<svg width="445" height="608" viewBox="0 0 445 608" fill="none" xmlns="http://www.w3.org/2000/svg">
<g clip-path="url(#clip0_253_2574)">
<path d="M11.2337 63.3478C19.3336 81.6142 41.862 90.9203 60.3523 94.7177C61.2817 95.3974 62.4243 95.4725 63.4978 95.1108C67.1609 94.6548 68.7022 89.5914 65.9309 87.6387C62.9112 79.3504 64.9325 68.0678 63.6036 59.3734C62.3307 51.0659 58.1055 40.8064 52.5898 34.4394C39.1229 18.8913 20.1196 10.8773 0.862477 4.90879C-2.84356 3.76077 -5.49062 7.95283 -3.8803 11.0766C4.54398 27.4118 3.79556 46.5772 11.2337 63.3478ZM15.3592 50.6375C13.0932 43.3707 11.8893 35.9553 10.3726 28.6334C15.84 35.5936 23.1976 41.7246 28.6635 47.2815C36.002 54.746 42.3052 62.4427 46.7911 71.9281C48.7135 75.9952 49.774 80.0493 51.7087 83.7915C35.0841 78.4162 20.9186 68.4434 15.3592 50.6375ZM48.3769 42.7852C56.8073 54.3099 54.7239 67.5521 55.9707 80.175C54.1978 76.6512 53.1626 72.7159 51.6152 69.0986C48.5326 61.8449 43.8396 55.7331 38.7533 49.8075C30.4924 40.2033 14.6967 29.445 9.8174 16.7592C24.6569 22.2165 38.8476 29.763 48.3769 42.7852Z" fill="#FC5A06" fill-opacity="0.41"/>
<path d="M291.813 523.265C283.713 504.997 261.184 495.692 242.696 491.887C241.765 491.214 240.624 491.14 239.55 491.502C235.886 491.95 234.345 497.014 237.116 498.972C240.137 507.262 238.115 518.544 239.444 527.238C240.717 535.545 244.941 545.805 250.458 552.173C263.925 567.721 282.927 575.735 302.184 581.704C305.892 582.851 308.537 578.66 306.927 575.536C298.503 559.202 299.252 540.035 291.813 523.265ZM287.683 535.975C289.953 543.242 291.159 550.656 292.675 557.972C287.209 551.017 279.851 544.888 274.384 539.33C267.044 531.864 260.743 524.169 256.256 514.682C254.334 510.61 253.266 506.562 251.338 502.813C267.956 508.196 282.128 518.17 287.683 535.975ZM254.671 543.828C246.233 532.302 248.324 519.061 247.076 506.438C248.849 509.962 249.885 513.891 251.433 517.515C254.515 524.768 259.208 530.88 264.294 536.799C272.556 546.409 288.351 557.168 293.231 569.854C278.383 564.396 264.193 556.85 254.671 543.828Z" fill="#FC5A06" fill-opacity="0.41"/>
<path d="M381.613 153.095C363.342 161.197 354.025 183.705 350.224 202.191C349.544 203.12 349.47 204.262 349.831 205.334C350.286 208.988 355.354 210.529 357.306 207.76C365.605 204.748 376.89 206.762 385.588 205.44C393.9 204.168 404.172 199.939 410.538 194.426C426.095 180.967 434.121 161.982 440.086 142.729C441.24 139.025 437.04 136.379 433.92 137.989C417.577 146.416 398.394 145.661 381.613 153.095ZM394.337 157.225C401.607 154.96 409.02 153.751 416.347 152.241C409.382 157.699 403.254 165.059 397.688 170.521C390.225 177.855 382.518 184.155 373.033 188.633C368.959 190.554 364.902 191.619 361.158 193.547C366.543 176.938 376.516 162.774 394.337 157.225ZM402.189 190.223C390.656 198.648 377.407 196.559 364.783 197.806C368.303 196.041 372.241 195 375.866 193.459C383.118 190.379 389.239 185.688 395.161 180.6C404.778 172.342 415.537 156.556 428.23 151.679C422.769 166.517 415.219 180.699 402.189 190.223Z" fill="#FC5A06" fill-opacity="0.41"/>
<path d="M291.813 63.3478C283.713 81.6142 261.184 90.9203 242.696 94.7177C241.765 95.3974 240.624 95.4725 239.55 95.1108C235.886 94.6548 234.345 89.5914 237.116 87.6387C240.137 79.3504 238.115 68.0678 239.444 59.3734C240.711 51.0659 244.941 40.8064 250.458 34.4394C263.925 18.8913 282.927 10.8773 302.184 4.90879C305.892 3.76077 308.537 7.95283 306.927 11.0766C298.503 27.4118 299.252 46.5772 291.813 63.3478ZM287.683 50.6375C289.953 43.3707 291.159 35.9553 292.668 28.6334C287.208 35.5936 279.85 41.7246 274.378 47.2815C267.044 54.746 260.743 62.4427 256.256 71.9281C254.334 75.9952 253.266 80.0493 251.338 83.7915C267.956 78.4162 282.128 68.4434 287.683 50.6375ZM254.671 42.7852C246.233 54.3099 248.324 67.5521 247.076 80.175C248.842 76.6512 249.885 72.7159 251.426 69.0986C254.515 61.8449 259.201 55.7331 264.293 49.8075C272.556 40.2033 288.35 29.445 293.231 16.7592C278.383 22.2165 264.193 29.763 254.671 42.7852Z" fill="#FC5A06" fill-opacity="0.41"/>
<path d="M11.2337 523.265C19.3336 504.997 41.862 495.692 60.3523 491.887C61.2817 491.214 62.4243 491.14 63.4978 491.502C67.1609 491.95 68.7022 497.014 65.9309 498.972C62.9112 507.262 64.9325 518.544 63.6036 527.238C62.3307 535.545 58.1055 545.805 52.5898 552.173C39.1229 567.721 20.1196 575.735 0.862477 581.704C-2.84356 582.851 -5.49062 578.66 -3.8803 575.536C4.54398 559.202 3.79556 540.035 11.2337 523.265ZM15.3592 535.975C13.0932 543.242 11.8893 550.656 10.3726 557.972C15.84 551.017 23.1976 544.888 28.6635 539.33C36.002 531.864 42.3052 524.169 46.7911 514.682C48.7135 510.61 49.774 506.562 51.7087 502.813C35.0841 508.196 20.9186 518.17 15.3592 535.975ZM48.3769 543.828C56.8073 532.302 54.7239 519.061 55.9707 506.438C54.1978 509.962 53.1626 513.891 51.6152 517.515C48.5326 524.768 43.8396 530.88 38.7533 536.799C30.4924 546.409 14.6967 557.168 9.8174 569.854C24.6569 564.396 38.8476 556.85 48.3769 543.828Z" fill="#FC5A06" fill-opacity="0.41"/>
<path d="M381.613 433.516C363.342 425.414 354.025 402.905 350.224 384.42C349.544 383.491 349.47 382.35 349.831 381.277C350.286 377.621 355.354 376.081 357.306 378.849C365.605 381.863 376.89 379.848 385.588 381.17C393.9 382.442 404.172 386.67 410.538 392.177C426.095 405.643 434.121 424.627 440.086 443.879C441.24 447.585 437.04 450.229 433.92 448.614C417.577 440.196 398.394 440.951 381.613 433.516ZM394.337 429.388C401.607 431.651 409.02 432.862 416.347 434.371C409.382 428.914 403.254 421.555 397.688 416.091C390.225 408.756 382.518 402.458 373.033 397.98C368.959 396.058 364.902 394.992 361.158 393.065C366.543 409.673 376.516 423.836 394.337 429.388ZM402.189 396.389C390.656 387.962 377.407 390.052 364.783 388.804C368.303 390.569 372.241 391.611 375.866 393.152C383.118 396.232 389.239 400.923 395.161 406.011C404.778 414.269 415.537 430.054 428.23 434.925C422.769 420.094 415.219 405.912 402.189 396.389Z" fill="#FC5A06" fill-opacity="0.41"/>
<path d="M-2.05122 139.826C9.28084 139.17 20.2195 135.367 27.9084 127.577C29.1875 126.285 29.35 124.77 28.8884 123.453C28.7442 122.363 28.1829 121.302 27.0595 120.522C14.4852 111.736 8.15746 98.1456 -6.87603 92.4637C-24.1548 85.9395 -43.1259 84.8053 -58.7958 74.352C-61.117 72.8055 -64.3307 74.4148 -64.9917 76.9155C-67.4939 77.5823 -69.1042 80.788 -67.5567 83.1078C-57.1035 98.7686 -55.9686 117.729 -49.4345 135.004C-43.7562 150.023 -30.1528 156.346 -21.3666 168.92C-20.5791 170.043 -19.5186 170.598 -18.4274 170.742C-17.1162 171.209 -15.594 171.047 -14.3019 169.768C-6.51411 162.083 -2.70685 151.151 -2.05122 139.826ZM305.094 139.826C305.755 151.151 309.563 162.083 317.35 169.768C318.641 171.046 320.165 171.208 321.475 170.741C322.568 170.598 323.628 170.042 324.408 168.919C333.201 156.345 346.799 150.022 352.484 135.003C359.017 117.728 360.153 98.7679 370.606 83.107C372.153 80.7872 370.543 77.5815 368.041 76.9147C367.372 74.4141 364.166 72.8047 361.844 74.3512C346.174 84.8045 327.204 85.9388 309.924 92.4629C294.89 98.144 288.562 111.735 275.988 120.521C274.866 121.301 274.303 122.362 274.161 123.453C273.698 124.769 273.86 126.284 275.133 127.576C282.822 135.366 293.768 139.17 305.094 139.826ZM305.094 446.792C293.768 447.447 282.822 451.251 275.134 459.035C273.861 460.332 273.698 461.848 274.162 463.163C274.305 464.249 274.867 465.309 275.989 466.095C288.563 474.876 294.891 488.473 309.925 494.148C327.205 500.677 346.174 501.813 361.844 512.266C364.166 513.813 367.379 512.204 368.042 509.703C370.544 509.035 372.154 505.83 370.607 503.509C360.153 487.848 359.018 468.89 352.484 451.613C346.8 436.594 333.201 430.271 324.409 417.698C323.629 416.576 322.569 416.02 321.476 415.877C320.165 415.409 318.643 415.572 317.351 416.848C309.562 424.533 305.755 435.466 305.094 446.792ZM-2.05122 446.792C-2.70685 435.467 -6.51411 424.533 -14.3012 416.848C-15.5932 415.571 -17.1154 415.409 -18.4266 415.877C-19.5178 416.02 -20.5791 416.576 -21.3659 417.698C-30.1521 430.271 -43.7554 436.595 -49.4337 451.613C-55.9686 468.889 -57.1027 487.848 -67.556 503.509C-69.1034 505.83 -67.4931 509.035 -64.991 509.703C-64.33 512.204 -61.1162 513.813 -58.7951 512.266C-43.1251 501.813 -24.154 500.677 -6.87529 494.148C8.1582 488.473 14.486 474.876 27.0603 466.095C28.1837 465.309 28.745 464.249 28.8892 463.163C29.3508 461.848 29.1882 460.332 27.9092 459.035C20.2195 451.251 9.28084 447.447 -2.05122 446.792ZM-32.2363 109.652C-30.3208 110.968 -28.393 112.265 -26.4775 113.555C-13.9461 121.962 -0.760651 126.953 13.9239 127.432C6.49116 131.136 -2.32652 131.941 -10.8942 130.987C-9.9395 139.543 -10.7446 148.355 -14.4461 155.784C-14.9315 141.11 -19.9189 127.931 -28.337 115.413C-29.6222 113.493 -30.9197 111.566 -32.2363 109.652ZM335.285 109.652C333.968 111.566 332.67 113.493 331.384 115.413C322.966 127.931 317.98 141.11 317.493 155.784C313.792 148.356 312.988 139.543 313.943 130.987C305.375 131.941 296.557 131.136 289.125 127.432C303.808 126.952 316.993 121.962 329.524 113.555C331.441 112.265 333.369 110.968 335.285 109.652ZM335.285 476.965C333.369 475.643 331.441 474.352 329.524 473.06C316.993 464.647 303.808 459.664 289.125 459.184C296.557 455.48 305.375 454.675 313.943 455.629C312.988 447.066 313.792 438.259 317.493 430.832C317.98 445.506 322.966 458.684 331.384 471.202C332.671 473.123 333.969 475.051 335.285 476.965ZM-32.2363 476.965C-30.9197 475.051 -29.623 473.123 -28.337 471.202C-19.9189 458.685 -14.9315 445.507 -14.4461 430.832C-10.7446 438.259 -9.9395 447.066 -10.8942 455.629C-2.32652 454.675 6.49116 455.48 13.9239 459.184C-0.760651 459.664 -13.9461 464.646 -26.4775 473.06C-28.393 474.352 -30.32 475.643 -32.2363 476.965ZM-48.7175 88.8142C-38.6016 92.656 -27.8677 94.7268 -17.2718 97.708C-2.14017 101.961 5.24966 112.508 15.4583 121.807C-7.03172 121.103 -33.9217 107.324 -48.7175 88.8142ZM-53.0861 493.431C-49.2482 483.321 -47.1701 472.599 -44.1872 462.003C-39.9313 446.879 -29.3783 439.501 -20.0745 429.292C-20.78 451.768 -34.5713 478.649 -53.0861 493.431ZM351.765 497.802C341.649 493.961 330.917 491.889 320.314 488.91C305.187 484.655 297.799 474.109 287.59 464.803C310.079 465.508 336.969 479.291 351.765 497.802ZM356.134 93.1864C352.291 103.289 350.218 114.018 347.235 124.614C342.979 139.737 332.428 147.116 323.122 157.325C323.828 134.848 337.612 107.967 356.134 93.1864ZM287.59 121.807C297.799 112.508 305.187 101.961 320.314 97.708C330.917 94.7268 341.649 92.656 351.765 88.8142C336.969 107.324 310.079 121.103 287.59 121.807ZM-20.0745 157.326C-29.3783 147.116 -39.9313 139.737 -44.1872 124.615C-47.1701 114.018 -49.2482 103.29 -53.0861 93.1871C-34.5713 107.967 -20.78 134.848 -20.0745 157.326ZM15.4591 464.803C5.25043 474.109 -2.1394 484.654 -17.271 488.909C-27.8669 491.889 -38.6017 493.961 -48.7168 497.801C-33.9218 479.291 -7.03171 465.508 15.4591 464.803ZM323.122 429.292C332.428 439.502 342.979 446.879 347.235 462.003C350.218 472.6 352.291 483.326 356.134 493.431C337.612 478.649 323.828 451.768 323.122 429.292Z" fill="#FC5A06" fill-opacity="0.41"/>
<path d="M338.875 552.622C330.001 565.202 354.07 575.91 355.1 562.757C355.381 559.146 349.776 559.146 349.502 562.72C348.378 562.801 347.255 562.887 346.138 562.969C345.532 551.899 349.539 548.276 358.169 552.081C365.801 555.392 366.126 564.934 363.412 571.407C359.599 580.525 348.329 581.473 339.992 580.096C322.787 577.246 317.594 556.334 317.302 541.771C317.233 538.167 311.629 538.129 311.704 541.734C312.059 559.397 318.157 578 335.903 584.786C352.472 591.123 371.624 580.321 370.663 561.947C369.796 545.519 348.086 539.574 338.875 552.622Z" fill="#FC5A06" fill-opacity="0.41"/>
<path d="M410.993 106.064C423.58 114.939 434.295 90.8836 421.128 89.8551C417.522 89.5677 417.515 95.1684 421.091 95.4496C421.178 96.5663 421.258 97.6875 421.346 98.8102C410.27 99.4156 406.637 95.4052 410.45 86.7858C413.757 79.1527 423.306 78.8347 429.789 81.5415C438.907 85.358 439.861 96.6161 438.483 104.948C435.631 122.149 414.701 127.332 400.135 127.625C396.522 127.7 396.485 133.294 400.092 133.22C417.771 132.869 436.385 126.777 443.175 109.039C449.516 92.4799 438.707 73.3337 420.317 74.3008C403.88 75.1615 397.938 96.8582 410.993 106.064Z" fill="#FC5A06" fill-opacity="0.41"/>
<path d="M338.875 33.9913C330.001 21.4059 354.07 10.6974 355.1 23.8576C355.381 27.4618 349.776 27.4687 349.496 23.8944C348.379 23.8139 347.255 23.7258 346.132 23.6392C345.532 34.7094 349.539 38.3397 358.169 34.5278C365.801 31.2224 366.126 21.6811 363.412 15.206C359.592 6.08846 348.329 5.13432 339.992 6.51762C322.787 9.36853 317.594 30.2805 317.302 44.8424C317.233 48.4482 311.629 48.4849 311.704 44.8807C312.059 27.212 318.157 8.61365 335.903 1.82206C352.472 -4.51431 371.624 6.29384 370.657 24.6661C369.796 41.0956 348.086 47.0388 338.875 33.9913Z" fill="#FC5A06" fill-opacity="0.41"/>
<path d="M410.993 480.547C423.58 471.671 434.295 495.727 421.128 496.756C417.522 497.043 417.515 491.443 421.091 491.161C421.178 490.039 421.258 488.922 421.346 487.799C410.27 487.195 406.637 491.204 410.45 499.824C413.757 507.458 423.306 507.776 429.789 505.07C438.907 501.251 439.861 489.995 438.483 481.663C435.632 464.462 414.701 459.279 400.135 458.986C396.522 458.911 396.485 453.316 400.092 453.385C417.771 453.74 436.385 459.834 443.175 477.571C449.516 494.13 438.701 513.277 420.317 512.31C403.88 511.45 397.938 489.753 410.993 480.547Z" fill="#FC5A06" fill-opacity="0.41"/>
<path d="M78.9723 59.0637C77.0001 51.5862 74.9596 43.8335 76.4955 36.0878C78.2799 27.1006 88.5016 21.9927 96.8829 21.2876C106.911 20.4462 112.965 30.7983 110.761 39.6361C109.706 43.878 106.15 46.4783 101.944 46.827C99.0047 47.0646 96.2143 45.7541 93.9867 43.9838C90.467 41.1765 91.884 31.9149 97.2633 35.1643C100.359 37.0289 103.154 32.1832 100.064 30.3117C94.8409 27.1634 89.5997 29.8503 86.8407 34.9084C83.5219 41.0141 88.6389 47.4945 93.5987 50.4565C105.705 57.6911 118.579 45.7663 116.808 33.2055C114.423 16.3284 98.0684 12.843 84.5326 19.1295C67.2653 27.1435 69.486 45.0429 73.5617 60.5098C74.4803 64.0029 79.8902 62.5507 78.9723 59.0637Z" fill="#FC5A06" fill-opacity="0.41"/>
<path d="M224.075 527.547C226.048 535.025 228.088 542.777 226.554 550.525C224.769 559.512 214.547 564.62 206.16 565.325C196.132 566.16 190.085 555.812 192.287 546.975C193.341 542.735 196.899 540.134 201.105 539.785C204.044 539.549 206.834 540.857 209.061 542.629C212.581 545.429 211.164 554.697 205.785 551.448C202.69 549.583 199.894 554.429 202.983 556.294C208.206 559.45 213.448 556.763 216.206 551.705C219.527 545.598 214.41 539.119 209.448 536.157C197.342 528.922 184.468 540.847 186.241 553.401C188.625 570.283 204.98 573.764 218.516 567.484C235.782 559.47 233.555 541.57 229.487 526.103C228.569 522.608 223.159 524.055 224.075 527.547Z" fill="#FC5A06" fill-opacity="0.41"/>
<path d="M385.901 220.795C393.384 218.831 401.146 216.792 408.891 218.326C417.884 220.109 422.994 230.318 423.7 238.701C424.542 248.724 414.182 254.774 405.346 252.571C401.103 251.518 398.495 247.956 398.151 243.753C397.908 240.821 399.218 238.033 400.991 235.8C403.799 232.288 413.072 233.706 409.82 239.082C407.948 242.175 412.803 244.969 414.67 241.881C417.828 236.654 415.138 231.416 410.071 228.665C403.967 225.341 397.484 230.456 394.514 235.419C387.275 247.519 399.207 260.385 411.775 258.615C428.66 256.226 432.149 239.879 425.865 226.352C417.841 209.095 399.936 211.321 384.454 215.395C380.959 216.312 382.414 221.719 385.901 220.795Z" fill="#FC5A06" fill-opacity="0.41"/>
<path d="M224.074 59.0637C226.04 51.5862 228.087 43.8335 226.546 36.0878C224.761 27.1006 214.545 21.9927 206.158 21.2876C196.13 20.4462 190.084 30.7983 192.285 39.6361C193.34 43.878 196.898 46.4783 201.104 46.827C204.042 47.0646 206.832 45.7541 209.059 43.9838C212.579 41.1765 211.163 31.9149 205.783 35.1643C202.688 37.0289 199.892 32.1832 202.981 30.3117C208.204 27.1634 213.446 29.8503 216.205 34.9084C219.525 41.0141 214.408 47.4945 209.447 50.4565C197.34 57.6911 184.466 45.7663 186.239 33.2055C188.623 16.3284 204.978 12.843 218.514 19.1295C235.781 27.1435 233.553 45.0429 229.485 60.5098C228.562 64.0029 223.158 62.5507 224.074 59.0637Z" fill="#FC5A06" fill-opacity="0.41"/>
<path d="M78.9725 527.547C77.0002 535.025 74.9597 542.777 76.4956 550.525C78.28 559.512 88.5017 564.62 96.8831 565.325C106.911 566.16 112.965 555.812 110.761 546.975C109.707 542.735 106.15 540.134 101.944 539.785C99.0049 539.549 96.2144 540.857 93.9868 542.629C90.4671 545.429 91.8842 554.697 97.2634 551.448C100.359 549.583 103.154 554.429 100.065 556.294C94.841 559.45 89.5998 556.763 86.8408 551.705C83.522 545.598 88.639 539.119 93.5988 536.157C105.705 528.922 118.579 540.847 116.808 553.401C114.423 570.283 98.0686 573.764 84.5327 567.484C67.2654 559.47 69.4861 541.57 73.5618 526.103C74.4804 522.608 79.8903 524.055 78.9725 527.547Z" fill="#FC5A06" fill-opacity="0.41"/>
<path d="M385.901 365.82C393.384 367.784 401.146 369.824 408.891 368.29C417.884 366.506 422.994 356.296 423.7 347.915C424.542 337.892 414.182 331.842 405.346 334.043C401.103 335.099 398.495 338.659 398.151 342.863C397.908 345.794 399.218 348.581 400.991 350.814C403.799 354.325 413.072 352.91 409.82 347.534C407.948 344.44 412.803 341.646 414.67 344.734C417.828 349.959 415.138 355.199 410.071 357.949C403.967 361.273 397.484 356.159 394.514 351.195C387.275 339.095 399.207 326.229 411.775 328C428.66 330.389 432.149 346.736 425.865 360.257C417.841 377.52 399.936 375.293 384.454 371.221C380.959 370.305 382.414 364.898 385.901 365.82Z" fill="#FC5A06" fill-opacity="0.41"/>
<path d="M151.525 86.6633C150.645 84.0561 149.46 81.5056 147.906 79.0662C139.325 65.6333 120.036 61.9279 105.595 65.8195C90.7434 69.8238 85.7706 87.094 93.4947 99.6227C101.552 112.707 120.884 108.523 126.045 95.8805C128.092 90.8669 119.966 88.7088 117.945 93.648C112.485 107.033 99.025 95.4758 98.2321 86.9323C97.6072 80.3392 102.131 76.0176 107.829 73.9155C117.121 70.4798 129.378 73.379 136.966 79.3475C154.252 92.9621 142.432 114.94 128.272 124.721C111.299 136.445 88.5089 129.359 71.4226 121.988C18.2299 99.0563 -21.9706 53.5146 -82.3783 47.7898C-86.3658 47.4089 -90.2973 47.422 -94.1283 47.796C-94.5025 51.6317 -94.5155 55.5539 -94.1413 59.5391C-88.4132 119.912 -42.845 160.089 -19.8933 213.25C-12.5242 230.333 -5.43494 253.103 -17.1657 270.073C-26.9519 284.224 -48.9366 296.038 -62.5591 278.755C-68.5311 271.177 -71.4389 258.922 -68.0012 249.635C-65.8971 243.947 -61.5738 239.425 -54.9768 240.044C-46.4283 240.842 -34.8647 254.294 -48.2503 259.751C-53.1986 261.765 -51.0392 269.892 -46.0227 267.84C-33.3663 262.682 -29.1795 243.36 -42.2714 235.31C-54.8142 227.595 -72.0945 232.558 -76.1012 247.401C-79.9951 261.84 -76.2814 281.112 -62.8467 289.688C-60.4059 291.247 -57.8486 292.425 -55.2398 293.311C-57.8486 294.19 -60.4059 295.369 -62.8467 296.928C-76.2814 305.498 -79.9951 324.776 -76.1012 339.213C-72.0945 354.05 -54.8142 359.021 -42.2714 351.306C-29.1795 343.254 -33.3663 323.933 -46.0227 318.768C-51.0392 316.724 -53.1986 324.85 -48.2503 326.864C-34.8639 332.322 -46.4275 345.774 -54.9768 346.572C-61.5738 347.189 -65.8971 342.668 -68.0012 336.98C-71.4389 327.687 -68.5319 315.438 -62.5591 307.854C-48.9366 290.578 -26.9519 302.391 -17.1657 316.542C-5.43494 333.512 -12.5242 356.282 -19.8933 373.366C-42.8457 426.522 -88.414 466.705 -94.1413 527.07C-94.5163 531.057 -94.5033 534.985 -94.1283 538.815C-90.2965 539.195 -86.3658 539.207 -82.3783 538.828C-21.9706 533.101 18.2299 487.561 71.4226 464.629C88.5089 457.256 111.299 450.171 128.272 461.897C142.432 471.676 154.252 493.654 136.966 507.264C129.378 513.238 117.121 516.138 107.829 512.701C102.131 510.6 97.6072 506.277 98.2321 499.686C99.0243 491.142 112.485 479.586 117.945 492.969C119.967 497.908 128.092 495.751 126.045 490.736C120.884 478.095 101.552 473.909 93.4947 486.989C85.7706 499.524 90.7434 516.794 105.595 520.797C120.036 524.689 139.325 520.985 147.906 507.55C149.459 505.112 150.644 502.561 151.525 499.948C152.405 502.561 153.59 505.112 155.145 507.55C163.725 520.985 183.014 524.689 197.454 520.797C212.306 516.794 217.274 499.524 209.554 486.989C201.497 473.909 182.165 478.095 177.004 490.736C174.959 495.751 183.083 497.908 185.104 492.969C190.566 479.586 204.026 491.142 204.818 499.686C205.435 506.278 200.917 510.601 195.219 512.701C185.928 516.138 173.672 513.238 166.083 507.264C148.797 493.655 160.617 471.676 174.77 461.897C191.75 450.171 214.539 457.256 231.626 464.629C284.819 487.561 325.02 533.102 385.426 538.828C389.413 539.207 393.339 539.195 397.177 538.815C397.552 534.985 397.563 531.057 397.189 527.07C391.461 466.705 345.887 426.522 322.942 373.366C315.571 356.282 308.482 333.513 320.214 316.542C329.999 302.391 351.983 290.579 365.606 307.854C371.578 315.438 374.48 327.687 371.048 336.98C368.939 342.668 364.621 347.189 358.018 346.572C349.47 345.774 337.912 332.322 351.297 326.864C356.245 324.85 354.087 316.723 349.069 318.768C336.415 323.932 332.226 343.254 345.318 351.306C357.856 359.021 375.141 354.05 379.141 339.213C383.042 324.776 379.329 305.498 365.893 296.928C363.446 295.369 360.895 294.19 358.286 293.305C360.895 292.425 363.446 291.247 365.893 289.688C379.329 281.112 383.041 261.84 379.141 247.401C375.141 232.558 357.856 227.595 345.318 235.31C332.226 243.36 336.415 262.682 349.069 267.84C354.087 269.892 356.245 261.765 351.297 259.751C337.912 254.294 349.47 240.842 358.018 240.044C364.62 239.425 368.939 243.947 371.048 249.635C374.481 258.922 371.579 271.177 365.606 278.755C351.983 296.038 329.999 284.224 320.214 270.073C308.482 253.103 315.571 230.333 322.942 213.25C345.887 160.089 391.461 119.912 397.189 59.5391C397.563 55.5539 397.552 51.6317 397.177 47.796C393.339 47.422 389.413 47.4089 385.426 47.7898C325.02 53.5146 284.819 99.0563 231.626 121.988C214.539 129.359 191.75 136.445 174.77 124.721C160.617 114.94 148.798 92.9621 166.083 79.3475C173.672 73.379 185.928 70.479 195.219 73.9155C200.917 76.0176 205.435 80.3392 204.818 86.9323C204.026 95.4758 190.565 107.033 185.104 93.648C183.082 88.7088 174.958 90.8676 177.004 95.8805C182.165 108.523 201.498 112.708 209.554 99.6227C217.274 87.094 212.306 69.8238 197.454 65.8195C183.014 61.9279 163.725 65.6333 155.145 79.0662C153.591 81.5056 152.405 84.0569 151.525 86.6633ZM-86.0706 55.8475C-64.7162 56.2153 -41.6641 65.6632 -24.7036 74.3645C3.08443 88.6091 27.5222 108.542 55.0303 123.323C79.1866 136.301 106.781 145.699 132.511 131.966C141.859 126.971 148.505 118.595 151.526 109.208C154.546 118.595 161.186 126.971 170.534 131.966C196.268 145.699 223.864 136.301 248.021 123.323C275.528 108.542 299.965 88.6083 327.753 74.3645C344.715 65.6639 367.768 56.2153 389.122 55.8475C388.76 77.1963 379.299 100.228 370.594 117.186C356.341 144.951 336.396 169.374 321.607 196.867C308.621 221.009 299.216 248.595 312.964 274.309C317.956 283.651 326.338 290.288 335.73 293.306C326.338 296.331 317.956 302.966 312.964 312.309C299.216 338.023 308.621 365.608 321.607 389.751C336.397 417.243 356.342 441.659 370.594 469.431C379.299 486.389 388.76 509.422 389.122 530.77C367.768 530.402 344.715 520.953 327.753 512.253C299.965 498.002 275.528 478.069 248.021 463.295C223.864 450.316 196.268 440.917 170.534 454.65C161.186 459.639 154.546 468.022 151.526 477.409C148.505 468.022 141.859 459.639 132.511 454.65C106.782 440.917 79.1866 450.316 55.0303 463.295C27.5222 478.069 3.08443 498.002 -24.7036 512.253C-41.6641 520.953 -64.7162 530.402 -86.0706 530.77C-85.7086 509.421 -76.2492 486.389 -67.5427 469.431C-53.2898 441.659 -33.3464 417.243 -18.556 389.751C-5.57602 365.608 3.83438 338.023 -9.91393 312.309C-14.9059 302.966 -23.2873 296.331 -32.6785 293.313C-23.2873 290.288 -14.9059 283.651 -9.91393 274.309C3.83438 248.595 -5.57602 221.009 -18.556 196.867C-33.3464 169.375 -53.2906 144.951 -67.5427 117.186C-76.2492 100.228 -85.7094 77.1963 -86.0706 55.8475Z" fill="#FC5A06" fill-opacity="0.41"/>
<path d="M151.525 6.07031C150.875 6.41288 150.345 6.99378 150.096 7.74713C146.739 17.9882 136.641 23.0094 133.584 33.5179C129.671 46.977 144.778 54.5227 151.006 63.5352C151.164 63.7598 151.338 63.9529 151.526 64.1154C151.712 63.9529 151.887 63.7605 152.043 63.5352C158.271 54.5227 173.372 46.9762 169.467 33.5179C166.408 23.0094 156.312 17.9889 152.955 7.74713C152.705 6.99378 152.168 6.41288 151.525 6.07031ZM438.926 293.304C438.583 292.662 438.002 292.126 437.247 291.877C427.006 288.521 421.977 278.429 411.462 275.374C398.001 271.47 390.444 286.569 381.433 292.788C381.203 292.943 381.009 293.117 380.847 293.305C381.009 293.491 381.203 293.667 381.433 293.829C390.445 300.046 398.002 315.145 411.462 311.235C421.977 308.179 427.006 298.094 437.247 294.733C438.002 294.49 438.583 293.954 438.926 293.304ZM151.525 580.545C152.167 580.201 152.704 579.621 152.954 578.866C156.311 568.626 166.408 563.599 169.466 553.095C173.371 539.636 158.27 532.091 152.042 523.078C151.887 522.854 151.711 522.661 151.525 522.498C151.337 522.661 151.163 522.854 151.006 523.078C144.777 532.091 129.67 539.637 133.583 553.095C136.641 563.599 146.738 568.626 150.095 578.866C150.345 579.621 150.876 580.201 151.525 580.545ZM-135.883 293.304C-135.534 293.954 -134.954 294.49 -134.198 294.732C-123.957 298.094 -118.927 308.178 -108.412 311.234C-94.9524 315.144 -87.3954 300.045 -78.3838 293.828C-78.1522 293.665 -77.9597 293.491 -77.7971 293.304C-77.9597 293.117 -78.1522 292.943 -78.3838 292.787C-87.3954 286.568 -94.9524 271.469 -108.412 275.374C-118.927 278.429 -123.957 288.521 -134.198 291.876C-134.954 292.126 -135.534 292.662 -135.883 293.304ZM151.525 55.5029C143.481 46.8965 133.422 39.4113 143.412 26.6083C146.332 22.8661 149.165 20.1654 151.525 16.929C153.877 20.1654 156.716 22.8661 159.636 26.6083C169.629 39.4113 159.563 46.8965 151.525 55.5029ZM389.47 293.304C398.083 285.271 405.571 275.212 418.377 285.202C422.121 288.115 424.822 290.952 428.062 293.304C424.822 295.663 422.121 298.499 418.377 301.413C405.571 311.404 398.083 301.344 389.47 293.304ZM151.525 531.111C159.563 539.719 169.628 547.203 159.636 560.007C156.716 563.749 153.877 566.45 151.525 569.687C149.165 566.45 146.332 563.749 143.412 560.007C133.422 547.202 143.481 539.718 151.525 531.111ZM-86.4216 293.304C-95.0329 301.344 -102.522 311.404 -115.327 301.413C-119.071 298.499 -121.78 295.663 -125.018 293.304C-121.78 290.953 -119.071 288.115 -115.327 285.202C-102.522 275.212 -95.0329 285.271 -86.4216 293.304Z" fill="#FC5A06" fill-opacity="0.41"/>
</g>
<defs>
<clipPath id="clip0_253_2574">
<rect width="445" height="608" fill="white"/>
</clipPath>
</defs>
</svg>
