<svg width="100" height="24" viewBox="0 0 100 24" fill="none" xmlns="http://www.w3.org/2000/svg">
<path d="M0 6.60419e-05L0 2.08154L100 2.08154V6.60419e-05L0 6.60419e-05Z" fill="#FC5A06" fill-opacity="0.48"/>
<path d="M0 21.9171L0 23.9985L100 23.9985V21.9171L0 21.9171Z" fill="#FC5A06" fill-opacity="0.48"/>
<path d="M8.16542 15.6832C5.84719 15.6832 3.96805 13.8837 3.96805 11.6638C3.96805 9.44394 5.84719 7.64451 8.16542 7.64451C10.4837 7.64451 12.3628 9.44394 12.3628 11.6638C12.3628 13.8837 10.4837 15.6832 8.16542 15.6832ZM8.16542 3.84477L0 11.6638L8.16542 19.4829L16.3308 11.6638L8.16542 3.84477Z" fill="#FC5A06" fill-opacity="0.48"/>
<path d="M24.8998 15.6832C22.5816 15.6832 20.7024 13.8837 20.7024 11.6638C20.7024 9.44394 22.5816 7.64451 24.8998 7.64451C27.218 7.64451 29.0972 9.44394 29.0972 11.6638C29.0972 13.8837 27.218 15.6832 24.8998 15.6832ZM24.8998 3.84477L16.7344 11.6638L24.8998 19.4829L33.0652 11.6638L24.8998 3.84477Z" fill="#FC5A06" fill-opacity="0.48"/>
<path d="M41.6342 15.6832C39.3159 15.6832 37.4368 13.8837 37.4368 11.6638C37.4368 9.44394 39.3159 7.64451 41.6342 7.64451C43.9524 7.64451 45.8315 9.44394 45.8315 11.6638C45.8315 13.8837 43.9524 15.6832 41.6342 15.6832ZM41.6342 3.84477L33.4688 11.6638L41.6342 19.4829L49.7996 11.6638L41.6342 3.84477Z" fill="#FC5A06" fill-opacity="0.48"/>
<path d="M58.3665 15.6832C56.0482 15.6832 54.1691 13.8837 54.1691 11.6638C54.1691 9.44394 56.0482 7.64451 58.3665 7.64451C60.6847 7.64451 62.5638 9.44394 62.5638 11.6638C62.5638 13.8837 60.6847 15.6832 58.3665 15.6832ZM58.3665 3.84477L50.201 11.6638L58.3665 19.4829L66.5319 11.6638L58.3665 3.84477Z" fill="#FC5A06" fill-opacity="0.48"/>
<path d="M75.101 15.6832C72.7827 15.6832 70.9036 13.8837 70.9036 11.6638C70.9036 9.44394 72.7827 7.64451 75.101 7.64451C77.4192 7.64451 79.2983 9.44394 79.2983 11.6638C79.2983 13.8837 77.4192 15.6832 75.101 15.6832ZM75.101 3.84477L66.9355 11.6638L75.101 19.4829L83.2664 11.6638L75.101 3.84477Z" fill="#FC5A06" fill-opacity="0.48"/>
<path d="M91.8334 15.6832C89.5152 15.6832 87.636 13.8837 87.636 11.6638C87.636 9.44394 89.5152 7.64451 91.8334 7.64451C94.1516 7.64451 96.0308 9.44394 96.0308 11.6638C96.0308 13.8837 94.1516 15.6832 91.8334 15.6832ZM91.8334 3.84477L83.668 11.6638L91.8334 19.4829L99.9988 11.6638L91.8334 3.84477Z" fill="#FC5A06" fill-opacity="0.48"/>
</svg>
