<svg width="78" height="20" viewBox="0 0 78 20" fill="none" xmlns="http://www.w3.org/2000/svg">
<g clip-path="url(#clip0_253_3151)">
<mask id="mask0_253_3151" style="mask-type:luminance" maskUnits="userSpaceOnUse" x="0" y="0" width="78" height="20">
<path d="M78 0H0V20H78V0Z" fill="white"/>
</mask>
<g mask="url(#mask0_253_3151)">
<path d="M29.8153 0.470703L23.0859 18.1949H26.7023L28.0989 14.4931H35.2436L36.6335 18.1949H40.2224L33.518 0.470703H29.8153ZM29.3243 11.2402L31.6787 5.00329L34.0199 11.2402H29.3243Z" fill="black"/>
<path d="M71.6003 5.51953C70.3348 5.51953 69.0979 5.89774 68.0459 6.60637C66.9939 7.31495 66.1742 8.32216 65.6903 9.50048C65.2058 10.6788 65.0794 11.9755 65.3258 13.2264C65.5728 14.4774 66.1821 15.6265 67.0769 16.5283C67.9713 17.4302 69.111 18.0444 70.352 18.2933C71.593 18.5421 72.8794 18.4144 74.0484 17.9263C75.2168 17.4382 76.2161 16.6116 76.9188 15.5511C77.6221 14.4906 77.9969 13.2438 77.9969 11.9684C77.9969 10.258 77.3229 8.61774 76.1237 7.40837C74.9239 6.19895 73.2966 5.51953 71.6003 5.51953ZM71.6003 15.1107C70.9837 15.1107 70.3812 14.9264 69.869 14.5813C69.3564 14.2361 68.957 13.7454 68.721 13.1714C68.485 12.5974 68.4234 11.9657 68.544 11.3563C68.6641 10.747 68.9606 10.1872 69.3966 9.74785C69.8325 9.30848 70.3875 9.00927 70.9921 8.88806C71.5966 8.76685 72.2231 8.82906 72.7927 9.06685C73.3618 9.30458 73.8489 9.70727 74.1914 10.2238C74.5334 10.7405 74.7161 11.3478 74.7161 11.9692C74.7172 12.3819 74.6368 12.7907 74.4807 13.1722C74.324 13.5536 74.0948 13.9002 73.8051 14.192C73.5158 14.4839 73.1718 14.7153 72.7933 14.8729C72.4153 15.0305 72.0096 15.1113 71.6003 15.1107Z" fill="black"/>
<path d="M44.5325 13.6231L41.6115 5.74219H38.1621L42.8635 18.1942H46.2855L50.9029 5.74219H47.4536L44.5325 13.6231Z" fill="black"/>
<path d="M61.7523 2.43359H58.47V5.74259H56.5508V8.71575H58.47V14.0163C58.47 17.0171 60.1114 18.3069 62.4201 18.3069C63.2032 18.3183 63.9801 18.1654 64.7016 17.858V14.7734C64.309 14.9193 63.895 14.9966 63.4768 15.0021C62.4801 15.0021 61.7523 14.6093 61.7523 13.2634V8.71575H64.7016V5.74259H61.7523V2.43359Z" fill="black"/>
<path d="M53.6017 4.84552C54.9231 4.84552 55.9944 3.76563 55.9944 2.4335C55.9944 1.10138 54.9231 0.0214844 53.6017 0.0214844C52.2803 0.0214844 51.209 1.10138 51.209 2.4335C51.209 3.76563 52.2803 4.84552 53.6017 4.84552Z" fill="black"/>
<path d="M55.2432 5.74219H51.9609V18.1942H55.2432V5.74219Z" fill="black"/>
<path d="M6.42013 19.9615C9.95399 19.9615 12.8188 17.0735 12.8188 13.511C12.8188 9.94849 9.95399 7.06055 6.42013 7.06055C2.88626 7.06055 0.0214844 9.94849 0.0214844 13.511C0.0214844 17.0735 2.88626 19.9615 6.42013 19.9615Z" fill="#04E061"/>
<path d="M17.5208 19.1471C19.6562 19.1471 21.3872 17.402 21.3872 15.2493C21.3872 13.0966 19.6562 11.3516 17.5208 11.3516C15.3854 11.3516 13.6543 13.0966 13.6543 15.2493C13.6543 17.402 15.3854 19.1471 17.5208 19.1471Z" fill="#FF4053"/>
<path d="M7.64458 6.22053C8.96604 6.22053 10.0373 5.14063 10.0373 3.80851C10.0373 2.47638 8.96604 1.39648 7.64458 1.39648C6.32317 1.39648 5.25195 2.47638 5.25195 3.80851C5.25195 5.14063 6.32317 6.22053 7.64458 6.22053Z" fill="#965EEB"/>
<path d="M16.0188 10.5104C18.8919 10.5104 21.2211 8.16239 21.2211 5.26597C21.2211 2.36951 18.8919 0.0214844 16.0188 0.0214844C13.1455 0.0214844 10.8164 2.36951 10.8164 5.26597C10.8164 8.16239 13.1455 10.5104 16.0188 10.5104Z" fill="#00AAFF"/>
</g>
</g>
<defs>
<clipPath id="clip0_253_3151">
<rect width="78" height="20" fill="white"/>
</clipPath>
</defs>
</svg>
