<svg width="39" height="25" viewBox="0 0 39 25" fill="none" xmlns="http://www.w3.org/2000/svg">
<path d="M19.4782 22.4852L15.0828 12.4852L19.4782 2.48517L23.8736 12.4852L19.4782 22.4852Z" stroke="#FC5A06" stroke-width="2" stroke-miterlimit="10"/>
<path d="M12.6944 14.8909C14.0137 14.8909 15.0832 13.8137 15.0832 12.4849C15.0832 11.1561 14.0137 10.0789 12.6944 10.0789C11.3751 10.0789 10.3056 11.1561 10.3056 12.4849C10.3056 13.8137 11.3751 14.8909 12.6944 14.8909Z" stroke="#FC5A06" stroke-width="2" stroke-miterlimit="10"/>
<path d="M26.2627 14.8909C27.582 14.8909 28.6515 13.8137 28.6515 12.4849C28.6515 11.1561 27.582 10.0789 26.2627 10.0789C24.9434 10.0789 23.8739 11.1561 23.8739 12.4849C23.8739 13.8137 24.9434 14.8909 26.2627 14.8909Z" stroke="#FC5A06" stroke-width="2" stroke-miterlimit="10"/>
<path d="M5.69464 8.16881L1.40912 12.4852L5.69464 16.8015L9.98016 12.4852L5.69464 8.16881Z" stroke="#FC5A06" stroke-width="2" stroke-miterlimit="10"/>
<path d="M33.1243 8.16881L28.8388 12.4852L33.1243 16.8015L37.4098 12.4852L33.1243 8.16881Z" stroke="#FC5A06" stroke-width="2" stroke-miterlimit="10"/>
</svg>
