<svg width="202" height="35" viewBox="0 0 202 35" fill="none" xmlns="http://www.w3.org/2000/svg">
<path d="M0 17.4724C7.86393 17.2157 15.7272 17.0427 23.5911 16.9555C31.4551 16.8491 39.3183 16.8212 47.1823 16.8079C55.0462 16.8192 62.9095 16.8478 70.7734 16.9536C78.6373 17.0407 86.5006 17.2143 94.3645 17.4724C86.5006 17.7312 78.6373 17.9049 70.7734 17.9913C62.9095 18.0971 55.0462 18.1257 47.1823 18.137C39.3183 18.1237 31.4551 18.0951 23.5911 17.9893C15.7272 17.9022 7.86393 17.7299 0 17.4724Z" fill="#FC5A06"/>
<path d="M107.637 17.4726C115.501 17.2158 123.364 17.0428 131.228 16.9557C139.092 16.8492 146.955 16.8213 154.819 16.808C162.683 16.8193 170.546 16.8479 178.41 16.9537C186.274 17.0408 194.137 17.2144 202.001 17.4726C194.137 17.7313 186.274 17.905 178.41 17.9915C170.546 18.0972 162.683 18.1258 154.819 18.1371C146.955 18.1238 139.092 18.0952 131.228 17.9895C123.364 17.9023 115.5 17.73 107.637 17.4726Z" fill="#FC5A06"/>
<path d="M100.999 32.4719L94.3633 17.4719L100.999 2.47192L107.634 17.4719L100.999 32.4719Z" stroke="#FC5A06" stroke-width="2" stroke-miterlimit="10"/>
<path d="M90.7586 21.0805C92.7503 21.0805 94.3648 19.4647 94.3648 17.4715C94.3648 15.4783 92.7503 13.8625 90.7586 13.8625C88.7669 13.8625 87.1523 15.4783 87.1523 17.4715C87.1523 19.4647 88.7669 21.0805 90.7586 21.0805Z" stroke="#FC5A06" stroke-width="2" stroke-miterlimit="10"/>
<path d="M111.243 21.0805C113.235 21.0805 114.849 19.4647 114.849 17.4715C114.849 15.4783 113.235 13.8625 111.243 13.8625C109.251 13.8625 107.637 15.4783 107.637 17.4715C107.637 19.4647 109.251 21.0805 111.243 21.0805Z" stroke="#FC5A06" stroke-width="2" stroke-miterlimit="10"/>
<path d="M80.1923 10.9974L73.7227 17.4719L80.1923 23.9465L86.6619 17.4719L80.1923 10.9974Z" stroke="#FC5A06" stroke-width="2" stroke-miterlimit="10"/>
<path d="M121.601 10.9974L115.131 17.4719L121.601 23.9465L128.07 17.4719L121.601 10.9974Z" stroke="#FC5A06" stroke-width="2" stroke-miterlimit="10"/>
</svg>
