<svg width="1900" height="90" viewBox="0 0 1900 90" fill="none" xmlns="http://www.w3.org/2000/svg">
<path d="M1889.49 15.8184H1900V79.4543H1889.49V37.091H1869.73V79.4543H1859.21V15.8184H1869.73V34.1819H1889.49V15.8184Z" fill="white"/>
<path d="M1829.43 80.3643C1826.23 80.3643 1823.2 79.637 1820.36 78.1825C1817.58 76.6674 1815.14 74.5159 1813.02 71.728C1810.97 68.8795 1809.34 65.425 1808.13 61.3644C1806.98 57.3038 1806.41 52.7281 1806.41 47.6372C1806.41 42.5464 1806.98 38.0009 1808.13 34.001C1809.34 29.9404 1810.97 26.5161 1813.02 23.7283C1815.14 20.8798 1817.58 18.698 1820.36 17.1829C1823.2 15.6677 1826.23 14.9102 1829.43 14.9102C1832.63 14.9102 1835.62 15.6677 1838.4 17.1829C1841.24 18.698 1843.69 20.8798 1845.74 23.7283C1847.86 26.5161 1849.49 29.9404 1850.64 34.001C1851.85 38.0009 1852.45 42.5464 1852.45 47.6372C1852.45 52.7281 1851.85 57.3038 1850.64 61.3644C1849.49 65.425 1847.86 68.8795 1845.74 71.728C1843.69 74.5159 1841.24 76.6674 1838.4 78.1825C1835.62 79.637 1832.63 80.3643 1829.43 80.3643ZM1829.43 77.2734C1831.06 77.2734 1832.57 76.5764 1833.96 75.1825C1835.41 73.7886 1836.65 71.8189 1837.68 69.2735C1838.76 66.6674 1839.58 63.5462 1840.12 59.9099C1840.73 56.2735 1841.03 52.1827 1841.03 47.6372C1841.03 43.0918 1840.73 39.0009 1840.12 35.3646C1839.58 31.7282 1838.76 28.6373 1837.68 26.0919C1836.65 23.4859 1835.41 21.4859 1833.96 20.0919C1832.57 18.698 1831.06 18.001 1829.43 18.001C1827.8 18.001 1826.26 18.698 1824.81 20.0919C1823.42 21.4859 1822.18 23.4859 1821.09 26.0919C1820.06 28.6373 1819.25 31.7282 1818.64 35.3646C1818.1 39.0009 1817.83 43.0918 1817.83 47.6372C1817.83 52.1827 1818.1 56.2735 1818.64 59.9099C1819.25 63.5462 1820.06 66.6674 1821.09 69.2735C1822.18 71.8189 1823.42 73.7886 1824.81 75.1825C1826.26 76.5764 1827.8 77.2734 1829.43 77.2734Z" fill="white"/>
<path d="M1793.04 33.9992C1798.9 33.9992 1801.83 37.5143 1801.83 44.5446C1801.83 47.5143 1801.08 50.5748 1799.57 53.7263C1798.12 56.8778 1796.21 59.999 1793.86 63.0899C1791.5 66.1202 1788.84 69.0596 1785.88 71.9081C1782.92 74.6959 1779.96 77.211 1777 79.4535H1762.77C1765.73 77.1504 1768.84 74.7262 1772.1 72.1808C1775.37 69.5747 1778.36 66.8475 1781.08 63.999C1783.86 61.1505 1786.12 58.1506 1787.87 54.9991C1789.69 51.8476 1790.59 48.4839 1790.59 44.9082C1790.59 42.3022 1789.93 40.3325 1788.6 38.9992C1787.33 37.6052 1785.52 36.9083 1783.16 36.9083H1768.21V33.9992C1769.6 33.9992 1771.14 33.9992 1772.83 33.9992C1774.52 33.9992 1775.91 33.9386 1777 33.8174C1779.47 33.5143 1781.53 33.0295 1783.16 32.3628C1784.85 31.6356 1786.18 30.7871 1787.15 29.8174C1788.12 28.7871 1788.78 27.6356 1789.14 26.3629C1789.57 25.0295 1789.78 23.575 1789.78 21.9993C1789.78 20.6659 1789.17 19.7871 1787.96 19.3629C1786.82 18.8781 1785.52 18.6356 1784.07 18.6356H1762.13V15.7266H1793.13C1796.21 15.7266 1798.39 16.1811 1799.66 17.0902C1800.99 17.9387 1801.65 19.3932 1801.65 21.4538C1801.65 24.2417 1800.35 26.6962 1797.75 28.8174C1795.22 30.9386 1791.86 32.6659 1787.69 33.9992H1793.04Z" fill="white"/>
<path d="M1733.33 76.5453H1758.34V79.4543H1722.81V15.8184H1754.72V18.7274H1733.33V34.1819H1754.72V37.091H1733.33V76.5453Z" fill="white"/>
<path d="M1686.22 34.5455C1686.22 38.8485 1687.15 43.0909 1689.03 47.2727C1690.96 51.4545 1693.38 55.4848 1696.28 59.3636C1699.24 63.1817 1702.5 66.8181 1706.07 70.2726C1709.69 73.6665 1713.2 76.7271 1716.58 79.4543H1701.63C1698.36 76.8483 1695.1 73.7574 1691.84 70.1817C1688.63 66.6059 1685.73 62.8181 1683.14 58.8181C1680.54 54.8181 1678.42 50.7272 1676.79 46.5455C1675.16 42.3637 1674.34 38.3031 1674.34 34.3637C1674.34 31.9395 1674.65 29.6062 1675.25 27.3637C1675.91 25.1213 1677 23.1517 1678.51 21.4547C1680.02 19.7577 1682.05 18.3941 1684.59 17.3638C1687.12 16.3335 1690.27 15.8184 1694.01 15.8184H1714.59V37.0001H1704.07V18.7274H1701.9C1698.39 18.7274 1695.58 19.1517 1693.47 20.0002C1691.41 20.788 1689.84 21.8789 1688.76 23.2729C1687.67 24.6668 1686.97 26.3335 1686.67 28.2728C1686.37 30.2122 1686.22 32.3031 1686.22 34.5455Z" fill="white"/>
<path d="M1629.88 15.8184H1640.39V79.4543H1629.88V37.091H1610.12V79.4543H1599.6V15.8184H1610.12V34.1819H1629.88V15.8184Z" fill="white"/>
<path d="M1580.04 15.8184H1590.56V79.4543H1580.04V30.091L1560.28 74.2726V79.4543H1549.77V15.8184H1560.28V67.0908L1580.04 23.0001V15.8184Z" fill="white"/>
<path d="M1503.84 15.8184H1536.47V76.5453H1542.99V89.9997H1540.09V79.4543H1492.51V89.9997H1489.61V76.5453H1494.59C1494.65 72.8483 1495.26 69.3332 1496.41 65.9999C1497.56 62.606 1498.98 59.3333 1500.67 56.1818C1502.42 53.0303 1504.29 49.9394 1506.29 46.9091C1508.28 43.8182 1510.15 40.7576 1511.91 37.7273C1513.72 34.697 1515.26 31.6061 1516.53 28.4546C1517.8 25.3032 1518.58 22.0607 1518.89 18.7274H1503.84V15.8184ZM1525.96 18.7274H1521.33C1520.85 22.8486 1520.12 26.6365 1519.16 30.091C1518.25 33.4849 1517.25 36.697 1516.17 39.7273C1515.08 42.7576 1513.93 45.6667 1512.72 48.4545C1511.57 51.2424 1510.52 54.0909 1509.55 56.9999C1508.58 59.909 1507.77 62.9696 1507.1 66.1817C1506.44 69.3332 1506.08 72.7877 1506.01 76.5453H1525.96V18.7274Z" fill="white"/>
<path d="M1462.45 80.3643C1459.25 80.3643 1456.23 79.637 1453.39 78.1825C1450.61 76.6674 1448.16 74.5159 1446.05 71.728C1443.99 68.8795 1442.36 65.425 1441.15 61.3644C1440 57.3038 1439.43 52.7281 1439.43 47.6372C1439.43 42.5464 1440 38.0009 1441.15 34.001C1442.36 29.9404 1443.99 26.5161 1446.05 23.7283C1448.16 20.8798 1450.61 18.698 1453.39 17.1829C1456.23 15.6677 1459.25 14.9102 1462.45 14.9102C1465.65 14.9102 1468.65 15.6677 1471.42 17.1829C1474.26 18.698 1476.71 20.8798 1478.77 23.7283C1480.88 26.5161 1482.51 29.9404 1483.66 34.001C1484.87 38.0009 1485.47 42.5464 1485.47 47.6372C1485.47 52.7281 1484.87 57.3038 1483.66 61.3644C1482.51 65.425 1480.88 68.8795 1478.77 71.728C1476.71 74.5159 1474.26 76.6674 1471.42 78.1825C1468.65 79.637 1465.65 80.3643 1462.45 80.3643ZM1462.45 77.2734C1464.08 77.2734 1465.59 76.5764 1466.98 75.1825C1468.43 73.7886 1469.67 71.8189 1470.7 69.2735C1471.79 66.6674 1472.6 63.5462 1473.15 59.9099C1473.75 56.2735 1474.05 52.1827 1474.05 47.6372C1474.05 43.0918 1473.75 39.0009 1473.15 35.3646C1472.6 31.7282 1471.79 28.6373 1470.7 26.0919C1469.67 23.4859 1468.43 21.4859 1466.98 20.0919C1465.59 18.698 1464.08 18.001 1462.45 18.001C1460.82 18.001 1459.28 18.698 1457.83 20.0919C1456.44 21.4859 1455.2 23.4859 1454.11 26.0919C1453.09 28.6373 1452.27 31.7282 1451.67 35.3646C1451.12 39.0009 1450.85 43.0918 1450.85 47.6372C1450.85 52.1827 1451.12 56.2735 1451.67 59.9099C1452.27 63.5462 1453.09 66.6674 1454.11 69.2735C1455.2 71.8189 1456.44 73.7886 1457.83 75.1825C1459.28 76.5764 1460.82 77.2734 1462.45 77.2734Z" fill="white"/>
<path d="M1405.42 79.4543H1394.91V43.1818H1380.32C1378.99 47.5454 1377.99 52.4242 1377.33 57.8181C1376.72 63.1514 1376.42 69.4544 1376.42 76.7271V79.4543H1364.64C1364.64 71.9392 1365.3 65.212 1366.63 59.2726C1367.96 53.2727 1369.77 47.8485 1372.07 43C1374.37 38.1516 1377.05 33.7576 1380.14 29.8183C1383.28 25.8789 1386.66 22.182 1390.29 18.7274H1372.79V15.8184H1405.42V79.4543ZM1394.91 40.2728V18.7274C1391.83 22.0001 1389.17 25.3638 1386.93 28.8183C1384.76 32.2122 1382.89 36.0304 1381.31 40.2728H1394.91Z" fill="white"/>
<path d="M1347.34 15.8184H1357.86V79.4543H1347.34V37.091H1327.58V79.4543H1317.07V15.8184H1327.58V34.1819H1347.34V15.8184Z" fill="white"/>
<path d="M1258.1 76.5453H1283.12V79.4543H1247.59V15.8184H1279.49V18.7274H1258.1V34.1819H1279.49V37.091H1258.1V76.5453Z" fill="white"/>
<path d="M1228.03 15.8184H1238.54V79.4543H1228.03V37.091H1208.27V79.4543H1197.75V15.8184H1208.27V34.1819H1228.03V15.8184Z" fill="white"/>
<path d="M1161.48 79.4543H1150.97V43.1818H1136.37C1135.04 47.5454 1134.05 52.4242 1133.38 57.8181C1132.78 63.1514 1132.48 69.4544 1132.48 76.7271V79.4543H1120.69C1120.69 71.9392 1121.36 65.212 1122.69 59.2726C1124.02 53.2727 1125.83 47.8485 1128.13 43C1130.42 38.1516 1133.11 33.7576 1136.19 29.8183C1139.33 25.8789 1142.72 22.182 1146.34 18.7274H1128.85V15.8184H1161.48V79.4543ZM1150.97 40.2728V18.7274C1147.88 22.0001 1145.23 25.3638 1142.99 28.8183C1140.81 32.2122 1138.94 36.0304 1137.37 40.2728H1150.97Z" fill="white"/>
<path d="M1077.05 67.0898H1089.01L1080.04 89.3624H1073.52L1077.05 67.0898Z" fill="white"/>
<path d="M1028.86 79.4543V15.8184H1039.37V29.4546C1039.37 31.4546 1040.09 33.394 1041.54 35.2728C1043.06 37.1516 1044.9 39.0606 1047.07 41C1049.25 42.9394 1051.64 44.9394 1054.23 47C1056.83 49 1059.22 51.1515 1061.39 53.4545C1063.57 55.7575 1065.38 58.2727 1066.83 60.9999C1068.34 63.6666 1069.1 66.6059 1069.1 69.818C1069.1 72.9089 1068.34 75.3029 1066.83 76.9998C1065.32 78.6362 1063.06 79.4543 1060.03 79.4543H1028.86ZM1039.37 76.5453H1050.7C1055.17 76.5453 1057.41 74.2423 1057.41 69.6362C1057.41 65.515 1056.74 61.909 1055.41 58.8181C1054.14 55.7272 1052.57 52.9697 1050.7 50.5454C1048.83 48.1212 1046.83 45.9091 1044.72 43.9091C1042.66 41.9091 1040.88 39.9394 1039.37 38V76.5453Z" fill="white"/>
<path d="M1023.82 18.7274H1008.68V79.4543H998.166V18.7274H983.029V15.8184H1023.82V18.7274Z" fill="white"/>
<path d="M949.788 34.5455C949.788 38.8485 950.724 43.0909 952.597 47.2727C954.531 51.4545 956.948 55.4848 959.848 59.3636C962.809 63.1817 966.072 66.8181 969.637 70.2726C973.263 73.6665 976.767 76.7271 980.151 79.4543H965.196C961.933 76.8483 958.67 73.7574 955.407 70.1817C952.205 66.6059 949.304 62.8181 946.706 58.8181C944.108 54.8181 941.993 50.7272 940.361 46.5455C938.73 42.3637 937.914 38.3031 937.914 34.3637C937.914 31.9395 938.216 29.6062 938.82 27.3637C939.485 25.1213 940.573 23.1517 942.083 21.4547C943.594 19.7577 945.618 18.3941 948.156 17.3638C950.694 16.3335 953.836 15.8184 957.582 15.8184H978.157V37.0001H967.643V18.7274H965.468C961.963 18.7274 959.153 19.1517 957.039 20.0002C954.984 20.788 953.413 21.8789 952.325 23.2729C951.238 24.6668 950.543 26.3335 950.241 28.2728C949.939 30.2122 949.788 32.3031 949.788 34.5455Z" fill="white"/>
<path d="M908.383 76.5453H933.399V79.4543H897.869V15.8184H929.774V18.7274H908.383V34.1819H929.774V37.091H908.383V76.5453Z" fill="white"/>
<path d="M874.785 41.5455C876.779 44.0909 878.773 46.5758 880.767 49C882.821 51.3636 884.664 53.7272 886.296 56.0909C887.927 58.4545 889.257 60.7878 890.284 63.0908C891.311 65.3938 891.825 67.6968 891.825 69.9999C891.825 73.0907 891.1 75.4544 889.649 77.0907C888.26 78.6665 886.054 79.4543 883.033 79.4543H851.4V15.8184H881.22C883.698 15.8184 885.722 16.3638 887.293 17.4547C888.924 18.5456 889.74 20.0608 889.74 22.0001C889.74 23.6365 889.257 25.3941 888.29 27.2728C887.323 29.091 886.084 30.9092 884.574 32.7274C883.063 34.5455 881.432 36.2425 879.679 37.8182C877.927 39.3334 876.296 40.5758 874.785 41.5455ZM863.002 18.7274C863.485 22.3638 864.633 25.8789 866.446 29.2728C868.259 32.6061 870.374 35.8788 872.791 39.091C874.241 37.3334 875.54 35.2728 876.688 32.9092C877.836 30.5455 878.592 28.1213 878.954 25.6365C879.317 23.2729 878.894 21.5456 877.685 20.4547C876.477 19.3032 874.755 18.7274 872.519 18.7274H863.002ZM873.425 76.5453C877.897 76.5453 880.133 74.2423 880.133 69.6362C880.133 67.0302 879.77 64.515 879.045 62.0908C878.38 59.606 877.504 57.2121 876.416 54.909C875.329 52.5454 874.09 50.2424 872.7 48C871.31 45.697 869.921 43.394 868.531 41.0909C867.202 38.7273 865.933 36.3334 864.724 33.9092C863.516 31.4849 862.519 28.9395 861.733 26.2728L861.914 76.5453H873.425Z" fill="white"/>
<path d="M821.616 80.3643C818.413 80.3643 815.392 79.637 812.552 78.1825C809.772 76.6674 807.325 74.5159 805.21 71.728C803.156 68.8795 801.524 65.425 800.316 61.3644C799.168 57.3038 798.594 52.7281 798.594 47.6372C798.594 42.5464 799.168 38.0009 800.316 34.001C801.524 29.9404 803.156 26.5161 805.21 23.7283C807.325 20.8798 809.772 18.698 812.552 17.1829C815.392 15.6677 818.413 14.9102 821.616 14.9102C824.818 14.9102 827.809 15.6677 830.589 17.1829C833.429 18.698 835.876 20.8798 837.93 23.7283C840.045 26.5161 841.677 29.9404 842.825 34.001C844.033 38.0009 844.638 42.5464 844.638 47.6372C844.638 52.7281 844.033 57.3038 842.825 61.3644C841.677 65.425 840.045 68.8795 837.93 71.728C835.876 74.5159 833.429 76.6674 830.589 78.1825C827.809 79.637 824.818 80.3643 821.616 80.3643ZM821.616 77.2734C823.247 77.2734 824.758 76.5764 826.148 75.1825C827.598 73.7886 828.837 71.8189 829.864 69.2735C830.951 66.6674 831.767 63.5462 832.311 59.9099C832.915 56.2735 833.217 52.1827 833.217 47.6372C833.217 43.0918 832.915 39.0009 832.311 35.3646C831.767 31.7282 830.951 28.6373 829.864 26.0919C828.837 23.4859 827.598 21.4859 826.148 20.0919C824.758 18.698 823.247 18.001 821.616 18.001C819.984 18.001 818.443 18.698 816.993 20.0919C815.603 21.4859 814.365 23.4859 813.277 26.0919C812.25 28.6373 811.434 31.7282 810.83 35.3646C810.286 39.0009 810.014 43.0918 810.014 47.6372C810.014 52.1827 810.286 56.2735 810.83 59.9099C811.434 63.5462 812.25 66.6674 813.277 69.2735C814.365 71.8189 815.603 73.7886 816.993 75.1825C818.443 76.5764 819.984 77.2734 821.616 77.2734Z" fill="white"/>
<path d="M764.262 34.5455C764.262 38.8485 765.199 43.0909 767.072 47.2727C769.006 51.4545 771.423 55.4848 774.323 59.3636C777.284 63.1817 780.547 66.8181 784.112 70.2726C787.737 73.6665 791.242 76.7271 794.626 79.4543H779.671C776.408 76.8483 773.145 73.7574 769.882 70.1817C766.679 66.6059 763.779 62.8181 761.181 58.8181C758.582 54.8181 756.467 50.7272 754.836 46.5455C753.204 42.3637 752.389 38.3031 752.389 34.3637C752.389 31.9395 752.691 29.6062 753.295 27.3637C753.96 25.1213 755.047 23.1517 756.558 21.4547C758.069 19.7577 760.093 18.3941 762.631 17.3638C765.169 16.3335 768.311 15.8184 772.057 15.8184H792.632V37.0001H782.118V18.7274H779.943C776.438 18.7274 773.628 19.1517 771.513 20.0002C769.459 20.788 767.888 21.8789 766.8 23.2729C765.712 24.6668 765.018 26.3335 764.715 28.2728C764.413 30.2122 764.262 32.3031 764.262 34.5455Z" fill="white"/>
<path d="M718.383 79.4543H707.869V43.1818H693.276C691.947 47.5454 690.95 52.4242 690.285 57.8181C689.681 63.1514 689.379 69.4544 689.379 76.7271V79.4543H677.596C677.596 71.9392 678.26 65.212 679.59 59.2726C680.919 53.2727 682.732 47.8485 685.028 43C687.324 38.1516 690.013 33.7576 693.095 29.8183C696.237 25.8789 699.621 22.182 703.246 18.7274H685.753V15.8184H718.383V79.4543ZM707.869 40.2728V18.7274C704.787 22.0001 702.128 25.3638 699.893 28.8183C697.717 32.2122 695.844 36.0304 694.273 40.2728H707.869Z" fill="white"/>
<path d="M660.3 15.8184H670.814V79.4543H660.3V37.091H640.541V79.4543H630.027V15.8184H640.541V34.1819H660.3V15.8184Z" fill="white"/>
<path d="M537.09 53.5449H593.829V59.9085H537.09V53.5449Z" fill="white"/>
<path d="M490.355 15.8184H500.869V79.4543H490.355V30.091L470.596 74.2726V79.4543H460.082V15.8184H470.596V67.0908L490.355 23.0001V15.8184Z" fill="white"/>
<path d="M440.511 15.8184H451.025V79.4543H440.511V54.9999H422.927C418.214 54.9999 414.619 54.1212 412.141 52.3636C409.724 50.606 408.516 48 408.516 44.5455C408.516 41.9394 409.09 39.6061 410.238 37.5455C411.386 35.4849 412.866 33.4849 414.679 31.5455C416.492 29.6062 418.486 27.6365 420.661 25.6365C422.897 23.5759 425.072 21.2729 427.187 18.7274H411.235V15.8184H433.35C431.719 17.8183 430.148 19.8789 428.637 22.0001C427.187 24.1213 425.918 26.3335 424.83 28.6365C423.743 30.8789 422.867 33.2122 422.202 35.6364C421.537 38.0607 421.175 40.6364 421.114 43.3637C420.993 46.2727 421.688 48.4545 423.199 49.9091C424.77 51.3636 427.459 52.0909 431.266 52.0909H440.511V15.8184Z" fill="white"/>
<path d="M378.987 76.5453H404.003V79.4543H368.473V15.8184H400.377V18.7274H378.987V34.1819H400.377V37.091H378.987V76.5453Z" fill="white"/>
<path d="M359.426 15.8184V79.4543H348.912V18.7274H329.153V79.4543H318.639V15.8184H359.426Z" fill="white"/>
<path d="M259.67 76.5453H284.686V79.4543H249.156V15.8184H281.061V18.7274H259.67V34.1819H281.061V37.091H259.67V76.5453Z" fill="white"/>
<path d="M185.588 79.4543V15.8184H196.102V29.4546C196.102 31.4546 196.827 33.394 198.277 35.2728C199.788 37.1516 201.631 39.0606 203.806 41C205.981 42.9394 208.368 44.9394 210.966 47C213.565 49 215.952 51.1515 218.127 53.4545C220.302 55.7575 222.115 58.2727 223.565 60.9999C225.076 63.6666 225.831 66.6059 225.831 69.818C225.831 72.9089 225.076 75.3029 223.565 76.9998C222.054 78.6362 219.789 79.4543 216.767 79.4543H185.588ZM196.102 76.5453H207.432C211.903 76.5453 214.139 74.2423 214.139 69.6362C214.139 65.515 213.474 61.909 212.145 58.8181C210.876 55.7272 209.305 52.9697 207.432 50.5454C205.558 48.1212 203.564 45.9091 201.449 43.9091C199.395 41.9091 197.612 39.9394 196.102 38V76.5453ZM230.091 15.8184H240.605V79.4543H230.091V15.8184Z" fill="white"/>
<path d="M166.609 18.7274H146.125V15.8184H177.123V79.4543H166.609V18.7274ZM164.252 16.9093C163.95 21.8789 163.316 26.3031 162.349 30.1819C161.382 34.0001 160.264 37.5455 158.995 40.8182C157.727 44.0303 156.397 47.0909 155.007 50C153.618 52.8484 152.349 55.7878 151.201 58.8181C150.053 61.7878 149.116 64.9393 148.391 68.2726C147.666 71.6059 147.333 75.3332 147.394 79.4543H135.43C135.248 75.4544 135.732 71.6362 136.88 67.9999C138.088 64.3029 139.629 60.7272 141.502 57.2727C143.436 53.8181 145.521 50.4545 147.756 47.1818C150.053 43.8485 152.198 40.5455 154.192 37.2728C156.186 33.9395 157.847 30.5758 159.177 27.1819C160.506 23.788 161.201 20.2729 161.261 16.6365L164.252 16.9093Z" fill="white"/>
<path d="M129.556 15.8184V79.4543H119.043V18.7274H99.2835V79.4543H88.7695V15.8184H129.556Z" fill="white"/>
<path d="M56.9739 76.545H81.9899V79.4541H46.46V15.8181H78.3644V18.7272H56.9739V34.1816H78.3644V37.0907H56.9739V76.545ZM54.8893 10.0908C53.4995 10.0908 52.3212 9.606 51.3544 8.63631C50.3876 7.60601 49.9042 6.3939 49.9042 4.99997C49.9042 3.66664 50.3876 2.51513 51.3544 1.54544C52.3212 0.515147 53.4995 0 54.8893 0C56.279 0 57.4573 0.515147 58.4241 1.54544C59.3909 2.51513 59.8743 3.66664 59.8743 4.99997C59.8743 6.3939 59.3909 7.60601 58.4241 8.63631C57.4573 9.606 56.279 10.0908 54.8893 10.0908ZM70.2977 10.0908C68.9079 10.0908 67.7296 9.606 66.7628 8.63631C65.796 7.60601 65.3126 6.3939 65.3126 4.99997C65.3126 3.66664 65.796 2.51513 66.7628 1.54544C67.7296 0.515147 68.9079 0 70.2977 0C71.6875 0 72.8657 0.515147 73.8325 1.54544C74.7993 2.51513 75.2827 3.66664 75.2827 4.99997C75.2827 6.3939 74.7993 7.60601 73.8325 8.63631C72.8657 9.606 71.6875 10.0908 70.2977 10.0908Z" fill="white"/>
<path d="M40.7869 18.7274H25.6505V79.4543H15.1365V18.7274H0V15.8184H40.7869V18.7274Z" fill="white"/>
</svg>
