<svg width="1900" height="58" viewBox="0 0 1900 58" fill="none" xmlns="http://www.w3.org/2000/svg">
<path d="M1876.52 23.1658H1866.2V51.0581H1859.45V9.15979H1866.2V21.2505H1876.52V23.1658ZM1885.2 51.7165C1883.14 51.7165 1881.2 51.2377 1879.37 50.28C1877.59 49.2825 1876.01 47.8659 1874.65 46.0303C1873.33 44.1549 1872.28 41.8804 1871.51 39.2069C1870.77 36.5334 1870.4 33.5207 1870.4 30.1688C1870.4 26.817 1870.77 23.8242 1871.51 21.1906C1872.28 18.5171 1873.33 16.2626 1874.65 14.427C1876.01 12.5516 1877.59 11.115 1879.37 10.1175C1881.2 9.11988 1883.14 8.62109 1885.2 8.62109C1887.26 8.62109 1889.18 9.11988 1890.97 10.1175C1892.79 11.115 1894.37 12.5516 1895.69 14.427C1897.05 16.2626 1898.1 18.5171 1898.84 21.1906C1899.61 23.8242 1900 26.817 1900 30.1688C1900 33.5207 1899.61 36.5334 1898.84 39.2069C1898.1 41.8804 1897.05 44.1549 1895.69 46.0303C1894.37 47.8659 1892.79 49.2825 1890.97 50.28C1889.18 51.2377 1887.26 51.7165 1885.2 51.7165ZM1885.2 49.6815C1886.25 49.6815 1887.22 49.2226 1888.11 48.3048C1889.05 47.3871 1889.84 46.0902 1890.5 44.4143C1891.2 42.6984 1891.73 40.6434 1892.08 38.2492C1892.46 35.855 1892.66 33.1616 1892.66 30.1688C1892.66 27.1761 1892.46 24.4826 1892.08 22.0884C1891.73 19.6942 1891.2 17.6592 1890.5 15.9832C1889.84 14.2674 1889.05 12.9506 1888.11 12.0328C1887.22 11.115 1886.25 10.6562 1885.2 10.6562C1884.15 10.6562 1883.16 11.115 1882.23 12.0328C1881.34 12.9506 1880.54 14.2674 1879.84 15.9832C1879.18 17.6592 1878.65 19.6942 1878.27 22.0884C1877.92 24.4826 1877.74 27.1761 1877.74 30.1688C1877.74 33.1616 1877.92 35.855 1878.27 38.2492C1878.65 40.6434 1879.18 42.6984 1879.84 44.4143C1880.54 46.0902 1881.34 47.3871 1882.23 48.3048C1883.16 49.2226 1884.15 49.6815 1885.2 49.6815Z" fill="#E3E3E3"/>
<path d="M1829.28 51.0566V9.1582H1836.03V18.1364C1836.03 19.4532 1836.5 20.7301 1837.43 21.9671C1838.4 23.2041 1839.59 24.4611 1840.99 25.738C1842.39 27.0149 1843.92 28.3317 1845.59 29.6884C1847.26 31.0052 1848.8 32.4218 1850.19 33.9381C1851.59 35.4544 1852.76 37.1104 1853.69 38.906C1854.66 40.6618 1855.15 42.5971 1855.15 44.712C1855.15 46.747 1854.66 48.3232 1853.69 49.4405C1852.72 50.5179 1851.26 51.0566 1849.32 51.0566H1829.28ZM1836.03 49.1412H1843.32C1846.19 49.1412 1847.63 47.6249 1847.63 44.5922C1847.63 41.8788 1847.2 39.5046 1846.35 37.4695C1845.53 35.4345 1844.52 33.6189 1843.32 32.0227C1842.11 30.4266 1840.83 28.9701 1839.47 27.6533C1838.15 26.3365 1837.01 25.0397 1836.03 23.7628V49.1412Z" fill="#E3E3E3"/>
<path d="M1823.87 51.0566H1817.11L1817.23 16.1612C1816.57 18.9145 1815.68 21.608 1814.55 24.2416C1813.42 26.8353 1812.32 29.5288 1811.23 32.322C1810.14 35.1152 1809.19 38.0481 1808.37 41.1207C1807.6 44.1533 1807.21 47.4653 1807.21 51.0566H1800.68V50.9369L1800.8 16.2809C1800.18 19.0342 1799.3 21.7277 1798.18 24.3613C1797.09 26.955 1796 29.6485 1794.91 32.4417C1793.87 35.195 1792.95 38.088 1792.18 41.1207C1791.4 44.1533 1791.01 47.4653 1791.01 51.0566H1783.32C1783.32 48.1835 1783.73 45.4901 1784.54 42.9762C1785.4 40.4224 1786.45 38.0082 1787.69 35.7337C1788.93 33.4193 1790.27 31.1848 1791.71 29.03C1793.15 26.8752 1794.49 24.7205 1795.73 22.5657C1796.97 20.4109 1798 18.2362 1798.82 16.0415C1799.67 13.8468 1800.1 11.5524 1800.1 9.1582H1807.21V31.3643C1808.3 29.5288 1809.38 27.7132 1810.47 25.9175C1811.6 24.1219 1812.61 22.3263 1813.5 20.5306C1814.4 18.6951 1815.11 16.8396 1815.66 14.9641C1816.24 13.0887 1816.53 11.1534 1816.53 9.1582H1823.87V51.0566Z" fill="#E3E3E3"/>
<path d="M1764.8 49.1412H1780.88V51.0566H1758.04V9.1582H1778.55V11.0736H1764.8V21.2489H1778.55V23.1642H1764.8V49.1412Z" fill="#E3E3E3"/>
<path d="M1734.52 21.4883C1734.52 24.3214 1735.12 27.1146 1736.32 29.868C1737.57 32.6213 1739.12 35.2748 1740.98 37.8287C1742.89 40.3426 1744.99 42.7367 1747.28 45.0112C1749.61 47.2458 1751.86 49.2609 1754.04 51.0566H1744.42C1742.32 49.3407 1740.23 47.3057 1738.13 44.9514C1736.07 42.5971 1734.21 40.1031 1732.54 37.4695C1730.86 34.8359 1729.5 32.1424 1728.46 29.3891C1727.41 26.6358 1726.88 23.9623 1726.88 21.3686C1726.88 19.7725 1727.08 18.2362 1727.47 16.7598C1727.89 15.2833 1728.59 13.9865 1729.56 12.8692C1730.53 11.7519 1731.84 10.8541 1733.47 10.1757C1735.1 9.49738 1737.12 9.1582 1739.53 9.1582H1752.75V23.1044H1746V11.0736H1744.6C1742.34 11.0736 1740.54 11.3529 1739.18 11.9115C1737.86 12.4303 1736.85 13.1485 1736.15 14.0663C1735.45 14.9841 1735 16.0814 1734.81 17.3583C1734.61 18.6352 1734.52 20.0119 1734.52 21.4883Z" fill="#E3E3E3"/>
<path d="M1698.29 9.1582H1705.05V51.0566H1698.29V18.5554L1685.59 47.6448V51.0566H1678.83V9.1582H1685.59V42.9163L1698.29 13.8867V9.1582Z" fill="#E3E3E3"/>
<path d="M1655.55 51.0566H1648.79L1648.91 16.1612C1648.25 18.9145 1647.36 21.608 1646.23 24.2416C1645.1 26.8353 1644 29.5288 1642.91 32.322C1641.82 35.1152 1640.87 38.0481 1640.05 41.1207C1639.28 44.1533 1638.89 47.4653 1638.89 51.0566H1632.36V50.9369L1632.48 16.2809C1631.86 19.0342 1630.98 21.7277 1629.86 24.3613C1628.77 26.955 1627.68 29.6485 1626.59 32.4417C1625.54 35.195 1624.63 38.088 1623.86 41.1207C1623.08 44.1533 1622.69 47.4653 1622.69 51.0566H1615C1615 48.1835 1615.41 45.4901 1616.22 42.9762C1617.08 40.4224 1618.13 38.0082 1619.37 35.7337C1620.61 33.4193 1621.95 31.1848 1623.39 29.03C1624.83 26.8752 1626.17 24.7205 1627.41 22.5657C1628.65 20.4109 1629.68 18.2362 1630.5 16.0415C1631.35 13.8468 1631.78 11.5524 1631.78 9.1582H1638.89V31.3643C1639.98 29.5288 1641.06 27.7132 1642.15 25.9175C1643.28 24.1219 1644.29 22.3263 1645.18 20.5306C1646.08 18.6951 1646.79 16.8396 1647.34 14.9641C1647.92 13.0887 1648.21 11.1534 1648.21 9.1582H1655.55V51.0566Z" fill="#E3E3E3"/>
<path d="M1597.77 51.656C1595.71 51.656 1593.77 51.1772 1591.95 50.2195C1590.16 49.2219 1588.59 47.8053 1587.23 45.9698C1585.91 44.0943 1584.86 41.8199 1584.08 39.1463C1583.34 36.4728 1582.97 33.4601 1582.97 30.1083C1582.97 26.7564 1583.34 23.7637 1584.08 21.1301C1584.86 18.4565 1585.91 16.202 1587.23 14.3665C1588.59 12.491 1590.16 11.0545 1591.95 10.0569C1593.77 9.05934 1595.71 8.56055 1597.77 8.56055C1599.83 8.56055 1601.75 9.05934 1603.54 10.0569C1605.37 11.0545 1606.94 12.491 1608.26 14.3665C1609.62 16.202 1610.67 18.4565 1611.41 21.1301C1612.19 23.7637 1612.57 26.7564 1612.57 30.1083C1612.57 33.4601 1612.19 36.4728 1611.41 39.1463C1610.67 41.8199 1609.62 44.0943 1608.26 45.9698C1606.94 47.8053 1605.37 49.2219 1603.54 50.2195C1601.75 51.1772 1599.83 51.656 1597.77 51.656ZM1597.77 49.6209C1598.82 49.6209 1599.79 49.1621 1600.69 48.2443C1601.62 47.3265 1602.42 46.0297 1603.08 44.3537C1603.77 42.6379 1604.3 40.5829 1604.65 38.1887C1605.04 35.7945 1605.23 33.101 1605.23 30.1083C1605.23 27.1155 1605.04 24.4221 1604.65 22.0279C1604.3 19.6337 1603.77 17.5986 1603.08 15.9227C1602.42 14.2068 1601.62 12.89 1600.69 11.9723C1599.79 11.0545 1598.82 10.5956 1597.77 10.5956C1596.72 10.5956 1595.73 11.0545 1594.8 11.9723C1593.91 12.89 1593.11 14.2068 1592.41 15.9227C1591.75 17.5986 1591.23 19.6337 1590.84 22.0279C1590.49 24.4221 1590.31 27.1155 1590.31 30.1083C1590.31 33.101 1590.49 35.7945 1590.84 38.1887C1591.23 40.5829 1591.75 42.6379 1592.41 44.3537C1593.11 46.0297 1593.91 47.3265 1594.8 48.2443C1595.73 49.1621 1596.72 49.6209 1597.77 49.6209Z" fill="#E3E3E3"/>
<path d="M1554.9 9.1582H1575.88V49.1412H1580.07V57.9997H1578.21V51.0566H1547.62V57.9997H1545.75V49.1412H1548.96C1549 46.7071 1549.38 44.3927 1550.12 42.1981C1550.86 39.9635 1551.77 37.8087 1552.86 35.7337C1553.99 33.6588 1555.19 31.6237 1556.47 29.6285C1557.76 27.5935 1558.96 25.5784 1560.09 23.5832C1561.25 21.588 1562.24 19.553 1563.06 17.478C1563.87 15.4031 1564.38 13.2682 1564.57 11.0736H1554.9V9.1582ZM1569.12 11.0736H1566.15C1565.84 13.787 1565.37 16.2809 1564.75 18.5554C1564.17 20.79 1563.52 22.9049 1562.82 24.9C1562.13 26.8952 1561.39 28.8105 1560.61 30.6461C1559.87 32.4816 1559.19 34.3571 1558.57 36.2724C1557.95 38.1878 1557.43 40.2029 1557 42.3178C1556.57 44.3927 1556.34 46.6672 1556.3 49.1412H1569.12V11.0736Z" fill="#E3E3E3"/>
<path d="M1517.4 9.15778H1524.16V51.0561H1517.4V18.555L1504.69 47.6444V51.0561H1497.94V9.15778H1504.69V42.9159L1517.4 13.8863V9.15778ZM1511.57 6.82345C1508.93 6.78355 1506.79 6.2249 1505.16 5.14751C1503.57 4.03022 1502.77 2.31439 1502.77 0H1507.67C1507.63 1.67593 1507.98 2.93289 1508.72 3.77085C1509.49 4.60882 1510.44 5.0278 1511.57 5.0278C1513.12 5.0278 1514.17 4.50906 1514.72 3.47158C1515.26 2.4341 1515.28 1.2769 1514.78 0H1519.96C1520 2.31439 1519.2 4.01027 1517.57 5.08766C1515.98 6.16504 1513.98 6.74364 1511.57 6.82345Z" fill="#E3E3E3"/>
<path d="M1457.07 51.0566V9.1582H1463.83V18.1364C1463.83 19.4532 1464.29 20.7301 1465.23 21.9671C1466.2 23.2041 1467.38 24.4611 1468.78 25.738C1470.18 27.0149 1471.71 28.3317 1473.38 29.6884C1475.05 31.0052 1476.59 32.4218 1477.99 33.9381C1479.39 35.4544 1480.55 37.1104 1481.48 38.906C1482.45 40.6618 1482.94 42.5971 1482.94 44.712C1482.94 46.747 1482.45 48.3232 1481.48 49.4405C1480.51 50.5179 1479.06 51.0566 1477.11 51.0566H1457.07ZM1463.83 49.1412H1471.11C1473.99 49.1412 1475.42 47.6249 1475.42 44.5922C1475.42 41.8788 1475 39.5046 1474.14 37.4695C1473.33 35.4345 1472.32 33.6189 1471.11 32.0227C1469.91 30.4266 1468.63 28.9701 1467.27 27.6533C1465.94 26.3365 1464.8 25.0397 1463.83 23.7628V49.1412ZM1485.68 9.1582H1492.44V51.0566H1485.68V9.1582Z" fill="#E3E3E3"/>
<path d="M1444.9 9.1582H1451.66V51.0566H1444.9V23.1642H1432.2V51.0566H1425.44V9.1582H1432.2V21.2489H1444.9V9.1582Z" fill="#E3E3E3"/>
<path d="M1421.79 11.0736H1412.06V51.0566H1405.3V11.0736H1395.57V9.1582H1421.79V11.0736Z" fill="#E3E3E3"/>
<path d="M1377.29 49.1412H1393.37V51.0566H1370.53V9.1582H1391.04V11.0736H1377.29V21.2489H1391.04V23.1642H1377.29V49.1412Z" fill="#E3E3E3"/>
<path d="M1360.81 9.1582C1362.75 9.1582 1364.21 9.71685 1365.18 10.8341C1366.15 11.9115 1366.64 13.4677 1366.64 15.5028C1366.64 17.6177 1366.15 19.5729 1365.18 21.3686C1364.25 23.1243 1363.08 24.7604 1361.68 26.2767C1360.29 27.793 1358.75 29.2295 1357.08 30.5862C1355.41 31.903 1353.88 33.1999 1352.48 34.4768C1351.08 35.7537 1349.89 37.0106 1348.92 38.2476C1347.99 39.4846 1347.52 40.7615 1347.52 42.0783V51.0566H1340.77V9.1582H1360.81ZM1347.52 36.452C1348.5 35.1751 1349.64 33.8782 1350.96 32.5614C1352.32 31.2446 1353.6 29.7882 1354.81 28.192C1356.01 26.5959 1357.02 24.7803 1357.84 22.7452C1358.69 20.7102 1359.12 18.3359 1359.12 15.6225C1359.12 12.5899 1357.68 11.0736 1354.81 11.0736H1347.52V36.452Z" fill="#E3E3E3"/>
<path d="M1328.57 51.0566C1328.57 48.6225 1328.33 46.328 1327.87 44.1733C1327.44 41.9786 1326.86 39.8837 1326.12 37.8885C1325.42 35.8933 1324.62 33.978 1323.73 32.1424C1322.87 30.267 1322 28.4314 1321.11 26.6358C1320.25 24.8003 1319.44 22.9847 1318.66 21.189C1317.88 19.3934 1317.26 17.5578 1316.8 15.6824L1316.91 51.0566H1310.15V9.1582H1317.49C1317.49 11.5125 1317.92 13.767 1318.78 15.9218C1319.67 18.0367 1320.8 20.1316 1322.16 22.2065C1323.2 21.4085 1324.12 20.4907 1324.89 19.4532C1325.71 18.3758 1326.37 17.2586 1326.88 16.1014C1327.38 14.9442 1327.75 13.767 1327.98 12.5699C1328.25 11.3728 1328.37 10.2356 1328.33 9.1582H1335.91C1335.91 10.4351 1335.56 11.7719 1334.86 13.1685C1334.2 14.5252 1333.29 15.842 1332.12 17.1189C1330.95 18.3958 1329.59 19.5929 1328.04 20.7102C1326.49 21.8275 1324.84 22.7851 1323.09 23.5832C1324.49 25.6582 1325.96 27.7331 1327.52 29.8081C1329.07 31.8831 1330.49 34.0378 1331.77 36.2724C1333.09 38.507 1334.18 40.8413 1335.03 43.2754C1335.93 45.7095 1336.37 48.3032 1336.37 51.0566H1328.57Z" fill="#E3E3E3"/>
<path d="M1297.58 9.1582H1304.34V51.0566H1297.58V23.1642H1284.87V51.0566H1278.12V9.1582H1284.87V21.2489H1297.58V9.1582Z" fill="#E3E3E3"/>
<path d="M1258.97 51.656C1256.91 51.656 1254.97 51.1772 1253.14 50.2195C1251.35 49.2219 1249.78 47.8053 1248.42 45.9698C1247.1 44.0943 1246.05 41.8199 1245.28 39.1463C1244.54 36.4728 1244.17 33.4601 1244.17 30.1083C1244.17 26.7564 1244.54 23.7637 1245.28 21.1301C1246.05 18.4565 1247.1 16.202 1248.42 14.3665C1249.78 12.491 1251.35 11.0545 1253.14 10.0569C1254.97 9.05934 1256.91 8.56055 1258.97 8.56055C1261.03 8.56055 1262.95 9.05934 1264.74 10.0569C1266.56 11.0545 1268.14 12.491 1269.46 14.3665C1270.82 16.202 1271.87 18.4565 1272.6 21.1301C1273.38 23.7637 1273.77 26.7564 1273.77 30.1083C1273.77 33.4601 1273.38 36.4728 1272.6 39.1463C1271.87 41.8199 1270.82 44.0943 1269.46 45.9698C1268.14 47.8053 1266.56 49.2219 1264.74 50.2195C1262.95 51.1772 1261.03 51.656 1258.97 51.656ZM1258.97 49.6209C1260.02 49.6209 1260.99 49.1621 1261.88 48.2443C1262.81 47.3265 1263.61 46.0297 1264.27 44.3537C1264.97 42.6379 1265.49 40.5829 1265.84 38.1887C1266.23 35.7945 1266.43 33.101 1266.43 30.1083C1266.43 27.1155 1266.23 24.4221 1265.84 22.0279C1265.49 19.6337 1264.97 17.5986 1264.27 15.9227C1263.61 14.2068 1262.81 12.89 1261.88 11.9723C1260.99 11.0545 1260.02 10.5956 1258.97 10.5956C1257.92 10.5956 1256.93 11.0545 1256 11.9723C1255.1 12.89 1254.31 14.2068 1253.61 15.9227C1252.95 17.5986 1252.42 19.6337 1252.03 22.0279C1251.68 24.4221 1251.51 27.1155 1251.51 30.1083C1251.51 33.101 1251.68 35.7945 1252.03 38.1887C1252.42 40.5829 1252.95 42.6379 1253.61 44.3537C1254.31 46.0297 1255.1 47.3265 1256 48.2443C1256.93 49.1621 1257.92 49.6209 1258.97 49.6209Z" fill="#E3E3E3"/>
<path d="M1233.42 51.0566C1233.42 48.6225 1233.19 46.328 1232.72 44.1733C1232.3 41.9786 1231.71 39.8837 1230.98 37.8885C1230.28 35.8933 1229.48 33.978 1228.59 32.1424C1227.73 30.267 1226.86 28.4314 1225.96 26.6358C1225.11 24.8003 1224.29 22.9847 1223.52 21.189C1222.74 19.3934 1222.12 17.5578 1221.65 15.6824L1221.77 51.0566H1215.01V9.1582H1222.35C1222.35 11.5125 1222.78 13.767 1223.63 15.9218C1224.53 18.0367 1225.65 20.1316 1227.01 22.2065C1228.06 21.4085 1228.97 20.4907 1229.75 19.4532C1230.57 18.3758 1231.23 17.2586 1231.73 16.1014C1232.24 14.9442 1232.61 13.767 1232.84 12.5699C1233.11 11.3728 1233.23 10.2356 1233.19 9.1582H1240.76C1240.76 10.4351 1240.41 11.7719 1239.72 13.1685C1239.06 14.5252 1238.14 15.842 1236.98 17.1189C1235.81 18.3958 1234.45 19.5929 1232.9 20.7102C1231.34 21.8275 1229.69 22.7851 1227.95 23.5832C1229.34 25.6582 1230.82 27.7331 1232.37 29.8081C1233.93 31.8831 1235.35 34.0378 1236.63 36.2724C1237.95 38.507 1239.04 40.8413 1239.89 43.2754C1240.78 45.7095 1241.23 48.3032 1241.23 51.0566H1233.42Z" fill="#E3E3E3"/>
<path d="M1168.01 9.1582H1188.99V49.1412H1193.18V57.9997H1191.32V51.0566H1160.73V57.9997H1158.86V49.1412H1162.07C1162.1 46.7071 1162.49 44.3927 1163.23 42.1981C1163.97 39.9635 1164.88 37.8087 1165.97 35.7337C1167.1 33.6588 1168.3 31.6237 1169.58 29.6285C1170.86 27.5935 1172.07 25.5784 1173.2 23.5832C1174.36 21.588 1175.35 19.553 1176.17 17.478C1176.98 15.4031 1177.49 13.2682 1177.68 11.0736H1168.01V9.1582ZM1182.23 11.0736H1179.26C1178.94 13.787 1178.48 16.2809 1177.86 18.5554C1177.27 20.79 1176.63 22.9049 1175.93 24.9C1175.24 26.8952 1174.5 28.8105 1173.72 30.6461C1172.98 32.4816 1172.3 34.3571 1171.68 36.2724C1171.06 38.1878 1170.53 40.2029 1170.11 42.3178C1169.68 44.3927 1169.45 46.6672 1169.41 49.1412H1182.23V11.0736Z" fill="#E3E3E3"/>
<path d="M1141.4 51.656C1139.35 51.656 1137.4 51.1772 1135.58 50.2195C1133.79 49.2219 1132.22 47.8053 1130.86 45.9698C1129.54 44.0943 1128.49 41.8199 1127.71 39.1463C1126.97 36.4728 1126.6 33.4601 1126.6 30.1083C1126.6 26.7564 1126.97 23.7637 1127.71 21.1301C1128.49 18.4565 1129.54 16.202 1130.86 14.3665C1132.22 12.491 1133.79 11.0545 1135.58 10.0569C1137.4 9.05934 1139.35 8.56055 1141.4 8.56055C1143.46 8.56055 1145.39 9.05934 1147.17 10.0569C1149 11.0545 1150.57 12.491 1151.89 14.3665C1153.25 16.202 1154.3 18.4565 1155.04 21.1301C1155.82 23.7637 1156.2 26.7564 1156.2 30.1083C1156.2 33.4601 1155.82 36.4728 1155.04 39.1463C1154.3 41.8199 1153.25 44.0943 1151.89 45.9698C1150.57 47.8053 1149 49.2219 1147.17 50.2195C1145.39 51.1772 1143.46 51.656 1141.4 51.656ZM1141.4 49.6209C1142.45 49.6209 1143.42 49.1621 1144.32 48.2443C1145.25 47.3265 1146.05 46.0297 1146.71 44.3537C1147.41 42.6379 1147.93 40.5829 1148.28 38.1887C1148.67 35.7945 1148.86 33.101 1148.86 30.1083C1148.86 27.1155 1148.67 24.4221 1148.28 22.0279C1147.93 19.6337 1147.41 17.5986 1146.71 15.9227C1146.05 14.2068 1145.25 12.89 1144.32 11.9723C1143.42 11.0545 1142.45 10.5956 1141.4 10.5956C1140.36 10.5956 1139.36 11.0545 1138.43 11.9723C1137.54 12.89 1136.74 14.2068 1136.04 15.9227C1135.38 17.5986 1134.86 19.6337 1134.47 22.0279C1134.12 24.4221 1133.95 27.1155 1133.95 30.1083C1133.95 33.101 1134.12 35.7945 1134.47 38.1887C1134.86 40.5829 1135.38 42.6379 1136.04 44.3537C1136.74 46.0297 1137.54 47.3265 1138.43 48.2443C1139.36 49.1621 1140.36 49.6209 1141.4 49.6209Z" fill="#E3E3E3"/>
<path d="M1122.24 9.1582V51.0566H1115.49V11.0736H1102.78V51.0566H1096.02V9.1582H1122.24Z" fill="#E3E3E3"/>
<path d="M1074.91 11.0736H1065.18V51.0566H1058.42V11.0736H1048.69V9.1582H1074.91V11.0736Z" fill="#E3E3E3"/>
<path d="M1038.64 51.0566C1038.64 48.6225 1038.41 46.328 1037.94 44.1733C1037.51 41.9786 1036.93 39.8837 1036.19 37.8885C1035.49 35.8933 1034.7 33.978 1033.8 32.1424C1032.95 30.267 1032.07 28.4314 1031.18 26.6358C1030.33 24.8003 1029.51 22.9847 1028.73 21.189C1027.96 19.3934 1027.34 17.5578 1026.87 15.6824L1026.99 51.0566H1020.23V9.1582H1027.57C1027.57 11.5125 1028 13.767 1028.85 15.9218C1029.74 18.0367 1030.87 20.1316 1032.23 22.2065C1033.28 21.4085 1034.19 20.4907 1034.97 19.4532C1035.78 18.3758 1036.44 17.2586 1036.95 16.1014C1037.45 14.9442 1037.82 13.767 1038.06 12.5699C1038.33 11.3728 1038.45 10.2356 1038.41 9.1582H1045.98C1045.98 10.4351 1045.63 11.7719 1044.93 13.1685C1044.27 14.5252 1043.36 15.842 1042.19 17.1189C1041.03 18.3958 1039.67 19.5929 1038.12 20.7102C1036.56 21.8275 1034.91 22.7851 1033.16 23.5832C1034.56 25.6582 1036.04 27.7331 1037.59 29.8081C1039.14 31.8831 1040.56 34.0378 1041.84 36.2724C1043.17 38.507 1044.25 40.8413 1045.11 43.2754C1046 45.7095 1046.45 48.3032 1046.45 51.0566H1038.64Z" fill="#E3E3E3"/>
<path d="M999.787 49.1412H1015.87V51.0566H993.027V9.1582H1013.54V11.0736H999.787V21.2489H1013.54V23.1642H999.787V49.1412Z" fill="#E3E3E3"/>
<path d="M973.881 51.656C971.822 51.656 969.879 51.1772 968.054 50.2195C966.267 49.2219 964.693 47.8053 963.334 45.9698C962.013 44.0943 960.964 41.8199 960.187 39.1463C959.449 36.4728 959.08 33.4601 959.08 30.1083C959.08 26.7564 959.449 23.7637 960.187 21.1301C960.964 18.4565 962.013 16.202 963.334 14.3665C964.693 12.491 966.267 11.0545 968.054 10.0569C969.879 9.05934 971.822 8.56055 973.881 8.56055C975.939 8.56055 977.862 9.05934 979.649 10.0569C981.475 11.0545 983.048 12.491 984.369 14.3665C985.729 16.202 986.778 18.4565 987.516 21.1301C988.293 23.7637 988.681 26.7564 988.681 30.1083C988.681 33.4601 988.293 36.4728 987.516 39.1463C986.778 41.8199 985.729 44.0943 984.369 45.9698C983.048 47.8053 981.475 49.2219 979.649 50.2195C977.862 51.1772 975.939 51.656 973.881 51.656ZM973.881 49.6209C974.929 49.6209 975.901 49.1621 976.794 48.2443C977.726 47.3265 978.523 46.0297 979.183 44.3537C979.882 42.6379 980.407 40.5829 980.756 38.1887C981.145 35.7945 981.339 33.101 981.339 30.1083C981.339 27.1155 981.145 24.4221 980.756 22.0279C980.407 19.6337 979.882 17.5986 979.183 15.9227C978.523 14.2068 977.726 12.89 976.794 11.9723C975.901 11.0545 974.929 10.5956 973.881 10.5956C972.832 10.5956 971.841 11.0545 970.909 11.9723C970.015 12.89 969.219 14.2068 968.52 15.9227C967.859 17.5986 967.335 19.6337 966.946 22.0279C966.597 24.4221 966.422 27.1155 966.422 30.1083C966.422 33.101 966.597 35.7945 966.946 38.1887C967.335 40.5829 967.859 42.6379 968.52 44.3537C969.219 46.0297 970.015 47.3265 970.909 48.2443C971.841 49.1621 972.832 49.6209 973.881 49.6209Z" fill="#E3E3E3"/>
<path d="M950.82 9.1582C952.762 9.1582 954.219 9.71685 955.19 10.8341C956.161 11.9115 956.647 13.4677 956.647 15.5028C956.647 17.6177 956.161 19.5729 955.19 21.3686C954.258 23.1243 953.093 24.7604 951.694 26.2767C950.296 27.793 948.761 29.2295 947.091 30.5862C945.42 31.903 943.886 33.1999 942.488 34.4768C941.089 35.7537 939.904 37.0106 938.933 38.2476C938.001 39.4846 937.535 40.7615 937.535 42.0783V51.0566H930.775V9.1582H950.82ZM937.535 36.452C938.506 35.1751 939.652 33.8782 940.973 32.5614C942.332 31.2446 943.614 29.7882 944.818 28.192C946.023 26.5959 947.033 24.7803 947.848 22.7452C948.703 20.7102 949.13 18.3359 949.13 15.6225C949.13 12.5899 947.693 11.0736 944.818 11.0736H937.535V36.452Z" fill="#E3E3E3"/>
<path d="M924.96 9.1582V51.0566H918.2V11.0736H905.498V51.0566H898.738V9.1582H924.96Z" fill="#E3E3E3"/>
<path d="M868.694 9.15778H875.454V51.0561H868.694V18.555L855.992 47.6444V51.0561H849.232V9.15778H855.992V42.9159L868.694 13.8863V9.15778ZM862.867 6.82345C860.226 6.78355 858.089 6.2249 856.458 5.14751C854.865 4.03022 854.069 2.31439 854.069 0H858.963C858.925 1.67593 859.274 2.93289 860.012 3.77085C860.789 4.60882 861.741 5.0278 862.867 5.0278C864.421 5.0278 865.47 4.50906 866.014 3.47158C866.558 2.4341 866.577 1.2769 866.072 0H871.258C871.297 2.31439 870.501 4.01027 868.869 5.08766C867.276 6.16504 865.276 6.74364 862.867 6.82345Z" fill="#E3E3E3"/>
<path d="M808.365 51.0566V9.1582H815.124V18.1364C815.124 19.4532 815.591 20.7301 816.523 21.9671C817.494 23.2041 818.679 24.4611 820.077 25.738C821.476 27.0149 823.01 28.3317 824.681 29.6884C826.351 31.0052 827.885 32.4218 829.284 33.9381C830.682 35.4544 831.848 37.1104 832.78 38.906C833.751 40.6618 834.237 42.5971 834.237 44.712C834.237 46.747 833.751 48.3232 832.78 49.4405C831.809 50.5179 830.352 51.0566 828.41 51.0566H808.365ZM815.124 49.1412H822.408C825.283 49.1412 826.72 47.6249 826.72 44.5922C826.72 41.8788 826.293 39.5046 825.438 37.4695C824.622 35.4345 823.612 33.6189 822.408 32.0227C821.204 30.4266 819.922 28.9701 818.562 27.6533C817.242 26.3365 816.096 25.0397 815.124 23.7628V49.1412ZM836.976 9.1582H843.735V51.0566H836.976V9.1582Z" fill="#E3E3E3"/>
<path d="M796.198 9.1582H802.957V51.0566H796.198V23.1642H783.495V51.0566H776.736V9.1582H783.495V21.2489H796.198V9.1582Z" fill="#E3E3E3"/>
<path d="M746.568 51.0566V9.1582H753.328V18.1364C753.328 19.4532 753.794 20.7301 754.726 21.9671C755.697 23.2041 756.882 24.4611 758.28 25.738C759.679 27.0149 761.213 28.3317 762.884 29.6884C764.554 31.0052 766.089 32.4218 767.487 33.9381C768.886 35.4544 770.051 37.1104 770.983 38.906C771.954 40.6618 772.44 42.5971 772.44 44.712C772.44 46.747 771.954 48.3232 770.983 49.4405C770.012 50.5179 768.555 51.0566 766.613 51.0566H746.568ZM753.328 49.1412H760.611C763.486 49.1412 764.923 47.6249 764.923 44.5922C764.923 41.8788 764.496 39.5046 763.641 37.4695C762.826 35.4345 761.816 33.6189 760.611 32.0227C759.407 30.4266 758.125 28.9701 756.765 27.6533C755.445 26.3365 754.299 25.0397 753.328 23.7628V49.1412Z" fill="#E3E3E3"/>
<path d="M734.367 11.0736H721.198V9.1582H741.127V51.0566H734.367V11.0736ZM732.852 9.87646C732.658 13.1485 732.25 16.0615 731.629 18.6153C731.007 21.1292 730.289 23.4635 729.473 25.6183C728.657 27.7331 727.802 29.7483 726.909 31.6636C726.015 33.5391 725.2 35.4744 724.462 37.4695C723.723 39.4248 723.121 41.4997 722.655 43.6944C722.189 45.8891 721.975 48.3431 722.014 51.0566H714.323C714.206 48.423 714.517 45.909 715.255 43.5149C716.032 41.0808 717.022 38.7265 718.227 36.452C719.47 34.1775 720.81 31.9629 722.247 29.8081C723.723 27.6134 725.103 25.4387 726.384 23.2839C727.666 21.0893 728.735 18.8746 729.589 16.6401C730.444 14.4055 730.891 12.0911 730.929 9.6969L732.852 9.87646Z" fill="#E3E3E3"/>
<path d="M710.512 51.0566H703.753V27.1745H694.372C693.517 30.0475 692.876 33.2597 692.449 36.8111C692.06 40.3226 691.866 44.4725 691.866 49.2609V51.0566H684.291C684.291 46.1086 684.718 41.6793 685.573 37.7688C686.428 33.8184 687.593 30.247 689.069 27.0548C690.545 23.8625 692.274 20.9696 694.255 18.3758C696.275 15.7821 698.45 13.348 700.781 11.0736H689.535V9.1582H710.512V51.0566ZM703.753 25.2591V11.0736C701.772 13.2283 700.063 15.443 698.625 17.7174C697.227 19.952 696.023 22.4659 695.013 25.2591H703.753Z" fill="#E3E3E3"/>
<path d="M674.177 9.1582H680.936V44.8317C680.936 46.8667 680.489 48.423 679.596 49.5003C678.702 50.5378 677.265 51.0566 675.284 51.0566H658.852V49.1412H669.865C672.74 49.1412 674.177 47.6249 674.177 44.5922V42.0783H664.329C661.299 42.0783 658.988 41.4997 657.395 40.3426C655.841 39.1854 655.064 37.4695 655.064 35.195C655.064 33.4792 655.434 31.5838 656.172 29.5088C656.91 27.394 657.861 25.2591 659.027 23.1044C660.192 20.9097 661.474 18.7749 662.873 16.6999C664.31 14.6249 665.708 12.7495 667.068 11.0736H656.463V9.1582H671.03C669.865 11.1534 668.758 13.1884 667.709 15.2634C666.699 17.2985 665.805 19.3734 665.029 21.4883C664.29 23.5633 663.688 25.6781 663.222 27.8329C662.795 29.9877 662.581 32.1824 662.581 34.4169C662.581 36.3323 663.047 37.7688 663.98 38.7265C664.951 39.6841 666.66 40.163 669.107 40.163H674.177V9.1582Z" fill="#E3E3E3"/>
<path d="M626.002 9.1582H646.979V49.1412H651.174V57.9997H649.31V51.0566H618.718V57.9997H616.854V49.1412H620.058C620.097 46.7071 620.486 44.3927 621.224 42.1981C621.962 39.9635 622.875 37.8087 623.962 35.7337C625.089 33.6588 626.293 31.6237 627.575 29.6285C628.857 27.5935 630.061 25.5784 631.188 23.5832C632.353 21.588 633.344 19.553 634.16 17.478C634.975 15.4031 635.48 13.2682 635.675 11.0736H626.002V9.1582ZM640.22 11.0736H637.248C636.937 13.787 636.471 16.2809 635.849 18.5554C635.267 20.79 634.626 22.9049 633.926 24.9C633.227 26.8952 632.489 28.8105 631.712 30.6461C630.974 32.4816 630.294 34.3571 629.673 36.2724C629.051 38.1878 628.527 40.2029 628.099 42.3178C627.672 44.3927 627.439 46.6672 627.4 49.1412H640.22V11.0736Z" fill="#E3E3E3"/>
<path d="M605.97 9.1582H612.729V51.0566H605.97V18.5554L593.267 47.6448V51.0566H586.508V9.1582H593.267V42.9163L605.97 13.8867V9.1582Z" fill="#E3E3E3"/>
<path d="M571.666 26.0971C572.948 27.773 574.23 29.4091 575.512 31.0052C576.833 32.5614 578.018 34.1177 579.067 35.6739C580.115 37.2301 580.97 38.7664 581.63 40.2827C582.291 41.799 582.621 43.3153 582.621 44.8317C582.621 46.8667 582.155 48.423 581.222 49.5003C580.329 50.5378 578.911 51.0566 576.969 51.0566H556.633V9.1582H575.803C577.396 9.1582 578.697 9.51733 579.707 10.2356C580.756 10.9538 581.281 11.9514 581.281 13.2283C581.281 14.3057 580.97 15.4629 580.348 16.6999C579.727 17.897 578.931 19.0941 577.959 20.2912C576.988 21.4883 575.939 22.6056 574.813 23.6431C573.686 24.6406 572.637 25.4587 571.666 26.0971ZM564.091 11.0736C564.402 13.4677 565.14 15.7821 566.306 18.0167C567.471 20.2114 568.831 22.3662 570.384 24.481C571.317 23.3238 572.152 21.9671 572.89 20.4109C573.628 18.8547 574.114 17.2586 574.347 15.6225C574.58 14.0663 574.308 12.9291 573.531 12.2108C572.754 11.4526 571.647 11.0736 570.21 11.0736H564.091ZM570.792 49.1412C573.667 49.1412 575.104 47.6249 575.104 44.5922C575.104 42.8764 574.871 41.2204 574.405 39.6243C573.978 37.9883 573.414 36.4121 572.715 34.8958C572.016 33.3395 571.22 31.8232 570.326 30.3468C569.433 28.8305 568.539 27.3142 567.646 25.7978C566.791 24.2416 565.975 22.6654 565.198 21.0693C564.422 19.4732 563.781 17.7972 563.276 16.0415L563.392 49.1412H570.792Z" fill="#E3E3E3"/>
<path d="M544.06 9.1582H550.819V51.0566H544.06V18.5554L531.357 47.6448V51.0566H524.598V9.1582H531.357V42.9163L544.06 13.8867V9.1582Z" fill="#E3E3E3"/>
<path d="M495.066 9.1582H516.043V49.1412H520.239V57.9997H518.374V51.0566H487.783V57.9997H485.918V49.1412H489.123C489.162 46.7071 489.55 44.3927 490.288 42.1981C491.026 39.9635 491.939 37.8087 493.027 35.7337C494.154 33.6588 495.358 31.6237 496.64 29.6285C497.922 27.5935 499.126 25.5784 500.252 23.5832C501.418 21.588 502.408 19.553 503.224 17.478C504.04 15.4031 504.545 13.2682 504.739 11.0736H495.066V9.1582ZM509.284 11.0736H506.312C506.002 13.787 505.536 16.2809 504.914 18.5554C504.331 20.79 503.69 22.9049 502.991 24.9C502.292 26.8952 501.554 28.8105 500.777 30.6461C500.039 32.4816 499.359 34.3571 498.737 36.2724C498.116 38.1878 497.591 40.2029 497.164 42.3178C496.737 44.3927 496.504 46.6672 496.465 49.1412H509.284V11.0736Z" fill="#E3E3E3"/>
<path d="M475.034 9.1582H481.794V51.0566H475.034V23.1642H462.332V51.0566H455.572V9.1582H462.332V21.2489H475.034V9.1582Z" fill="#E3E3E3"/>
<path d="M442.997 9.1582H449.756V51.0566H442.997V18.5554L430.294 47.6448V51.0566H423.535V9.1582H430.294V42.9163L442.997 13.8867V9.1582Z" fill="#E3E3E3"/>
<path d="M363.785 34H400.262V38.1898H363.785V34Z" fill="#E3E3E3"/>
<path d="M316.148 51.0566V9.1582H322.908V18.1364C322.908 19.4532 323.374 20.7301 324.306 21.9671C325.277 23.2041 326.462 24.4611 327.861 25.738C329.259 27.0149 330.794 28.3317 332.464 29.6884C334.134 31.0052 335.669 32.4218 337.067 33.9381C338.466 35.4544 339.631 37.1104 340.563 38.906C341.535 40.6618 342.02 42.5971 342.02 44.712C342.02 46.747 341.535 48.3232 340.563 49.4405C339.592 50.5179 338.135 51.0566 336.193 51.0566H316.148ZM322.908 49.1412H330.191C333.066 49.1412 334.503 47.6249 334.503 44.5922C334.503 41.8788 334.076 39.5046 333.221 37.4695C332.406 35.4345 331.396 33.6189 330.191 32.0227C328.987 30.4266 327.705 28.9701 326.346 27.6533C325.025 26.3365 323.879 25.0397 322.908 23.7628V49.1412Z" fill="#E3E3E3"/>
<path d="M303.973 9.1582H310.733V51.0566H303.973V34.9556H292.669C289.639 34.9556 287.328 34.377 285.735 33.2198C284.181 32.0626 283.404 30.3468 283.404 28.0723C283.404 26.3565 283.773 24.8202 284.511 23.4635C285.249 22.1068 286.201 20.79 287.367 19.5131C288.532 18.2362 289.814 16.9393 291.212 15.6225C292.65 14.2658 294.048 12.7495 295.408 11.0736H285.152V9.1582H299.37C298.321 10.475 297.311 11.8317 296.34 13.2283C295.408 14.6249 294.592 16.0814 293.893 17.5977C293.194 19.0741 292.63 20.6104 292.203 22.2065C291.776 23.8027 291.543 25.4986 291.504 27.2942C291.426 29.2096 291.873 30.6461 292.844 31.6038C293.854 32.5614 295.583 33.0403 298.03 33.0403H303.973V9.1582Z" fill="#E3E3E3"/>
<path d="M264.419 49.1412H280.502V51.0566H257.66V9.1582H278.171V11.0736H264.419V21.2489H278.171V23.1642H264.419V49.1412Z" fill="#E3E3E3"/>
<path d="M251.844 9.1582V51.0566H245.085V11.0736H232.382V51.0566H225.623V9.1582H251.844Z" fill="#E3E3E3"/>
<path d="M176.201 51.0566C176.201 48.6225 176.551 46.3081 177.25 44.1134C177.949 41.9187 178.843 39.8238 179.93 37.8287C181.018 35.7936 182.242 33.8383 183.601 31.9629C184.961 30.0874 186.301 28.2319 187.622 26.3964C186.651 25.7978 185.563 24.9998 184.359 24.0022C183.194 22.9647 182.086 21.8275 181.038 20.5905C180.028 19.3535 179.173 18.0965 178.474 16.8196C177.813 15.5427 177.483 14.3456 177.483 13.2283C177.483 11.9514 177.988 10.9538 178.998 10.2356C180.047 9.51733 181.368 9.1582 182.96 9.1582H202.539V51.0566H195.78L195.896 15.6225C195.43 17.498 194.809 19.3335 194.032 21.1292C193.255 22.9248 192.42 24.7404 191.526 26.576C190.671 28.3716 189.797 30.2071 188.904 32.0826C188.01 33.958 187.195 35.8933 186.457 37.8885C185.719 39.8837 185.116 41.9786 184.65 44.1733C184.223 46.328 184.009 48.6225 184.009 51.0566H176.201ZM188.554 11.0736C187.117 11.0736 186.01 11.4526 185.233 12.2108C184.456 12.9291 184.184 14.0663 184.417 15.6225C184.689 17.3783 185.214 19.0741 185.99 20.7102C186.806 22.3462 187.719 23.7229 188.729 24.8402C190.322 22.6056 191.701 20.371 192.866 18.1364C194.032 15.8619 194.77 13.5077 195.08 11.0736H188.554Z" fill="#E3E3E3"/>
<path d="M171.577 51.0566H164.817V27.1745H155.436C154.581 30.0475 153.941 33.2597 153.513 36.8111C153.125 40.3226 152.931 44.4725 152.931 49.2609V51.0566H145.355C145.355 46.1086 145.783 41.6793 146.637 37.7688C147.492 33.8184 148.657 30.247 150.134 27.0548C151.61 23.8625 153.338 20.9696 155.32 18.3758C157.34 15.7821 159.515 13.348 161.846 11.0736H150.6V9.1582H171.577V51.0566ZM164.817 25.2591V11.0736C162.836 13.2283 161.127 15.443 159.69 17.7174C158.291 19.952 157.087 22.4659 156.077 25.2591H164.817Z" fill="#E3E3E3"/>
<path d="M117.283 9.1582H138.26V49.1412H142.455V57.9997H140.591V51.0566H109.999V57.9997H108.135V49.1412H111.34C111.378 46.7071 111.767 44.3927 112.505 42.1981C113.243 39.9635 114.156 37.8087 115.244 35.7337C116.37 33.6588 117.574 31.6237 118.856 29.6285C120.138 27.5935 121.343 25.5784 122.469 23.5832C123.634 21.588 124.625 19.553 125.441 17.478C126.257 15.4031 126.762 13.2682 126.956 11.0736H117.283V9.1582ZM131.501 11.0736H128.529C128.218 13.787 127.752 16.2809 127.131 18.5554C126.548 20.79 125.907 22.9049 125.208 24.9C124.508 26.8952 123.77 28.8105 122.993 30.6461C122.255 32.4816 121.576 34.3571 120.954 36.2724C120.333 38.1878 119.808 40.2029 119.381 42.3178C118.953 44.3927 118.72 46.6672 118.682 49.1412H131.501V11.0736Z" fill="#E3E3E3"/>
<path d="M79.8165 15.6824C79.428 17.5578 78.8453 19.3934 78.0684 21.189C77.2915 22.9847 76.4563 24.8003 75.5628 26.6358C74.7082 28.4314 73.8342 30.267 72.9407 32.1424C72.0861 33.978 71.2897 35.8933 70.5517 37.8885C69.8524 39.8837 69.2697 41.9786 68.8036 44.1733C68.3763 46.328 68.1626 48.6225 68.1626 51.0566H60.3545C60.3545 48.3032 60.7818 45.7095 61.6364 43.2754C62.5299 40.8413 63.6176 38.507 64.8995 36.2724C66.2203 34.0378 67.6576 31.8831 69.2115 29.8081C70.7653 27.7331 72.2415 25.6582 73.6399 23.5832C71.8918 22.7851 70.2409 21.8275 68.687 20.7102C67.1332 19.5929 65.7736 18.3958 64.6082 17.1189C63.4428 15.842 62.5105 14.5252 61.8112 13.1685C61.1508 11.7719 60.8206 10.4351 60.8206 9.1582H68.3957C68.3568 10.2356 68.4539 11.3728 68.687 12.5699C68.959 13.767 69.3474 14.9442 69.8524 16.1014C70.3574 17.2586 70.9984 18.3758 71.7753 19.4532C72.5911 20.4907 73.5234 21.4085 74.5722 22.2065C75.9319 20.1316 77.039 18.0367 77.8936 15.9218C78.7871 13.767 79.2338 11.5125 79.2338 9.1582H86.5758C86.5758 11.5125 87.0031 13.767 87.8577 15.9218C88.7512 18.0367 89.8777 20.1316 91.2373 22.2065C92.2862 21.4085 93.1991 20.4907 93.976 19.4532C94.7918 18.3758 95.4521 17.2586 95.9571 16.1014C96.4622 14.9442 96.8312 13.767 97.0643 12.5699C97.3362 11.3728 97.4527 10.2356 97.4139 9.1582H104.989C104.989 10.4351 104.639 11.7719 103.94 13.1685C103.28 14.5252 102.367 15.842 101.201 17.1189C100.036 18.3958 98.6764 19.5929 97.1225 20.7102C95.5687 21.8275 93.9177 22.7851 92.1696 23.5832C93.5681 25.6582 95.0443 27.7331 96.5981 29.8081C98.152 31.8831 99.5699 34.0378 100.852 36.2724C102.173 38.507 103.26 40.8413 104.115 43.2754C105.008 45.7095 105.455 48.3032 105.455 51.0566H97.647C97.647 48.6225 97.4139 46.328 96.9477 44.1733C96.5204 41.9786 95.9377 39.8837 95.1996 37.8885C94.5004 35.8933 93.7041 33.978 92.8106 32.1424C91.956 30.267 91.0819 28.4314 90.1885 26.6358C89.3339 24.8003 88.5181 22.9847 87.7411 21.189C86.9642 19.3934 86.3427 17.5578 85.8765 15.6824L85.9931 51.0566H79.7L79.8165 15.6824Z" fill="#E3E3E3"/>
<path d="M55.3784 51.0566H48.6191V27.1745H39.2377C38.3831 30.0475 37.7421 33.2597 37.3148 36.8111C36.9264 40.3226 36.7321 44.4725 36.7321 49.2609V51.0566H29.1571C29.1571 46.1086 29.5844 41.6793 30.439 37.7688C31.2936 33.8184 32.459 30.247 33.9352 27.0548C35.4113 23.8625 37.14 20.9696 39.1212 18.3758C41.1412 15.7821 43.3166 13.348 45.6474 11.0736H34.4013V9.1582H55.3784V51.0566ZM48.6191 25.2591V11.0736C46.6379 13.2283 44.9287 15.443 43.4914 17.7174C42.0929 19.952 40.8887 22.4659 39.8787 25.2591H48.6191Z" fill="#E3E3E3"/>
<path d="M18.4132 51.0566C18.4132 48.6225 18.1801 46.328 17.7139 44.1733C17.2866 41.9786 16.7039 39.8837 15.9658 37.8885C15.2666 35.8933 14.4703 33.978 13.5768 32.1424C12.7222 30.267 11.8481 28.4314 10.9547 26.6358C10.1 24.8003 9.28427 22.9847 8.50734 21.189C7.73042 19.3934 7.10888 17.5578 6.64272 15.6824L6.75926 51.0566H0V9.1582H7.34196C7.34196 11.5125 7.76927 13.767 8.62388 15.9218C9.51735 18.0367 10.6439 20.1316 12.0035 22.2065C13.0524 21.4085 13.9653 20.4907 14.7422 19.4532C15.558 18.3758 16.2183 17.2586 16.7233 16.1014C17.2283 14.9442 17.5974 13.767 17.8305 12.5699C18.1024 11.3728 18.2189 10.2356 18.1801 9.1582H25.7551C25.7551 10.4351 25.4055 11.7719 24.7063 13.1685C24.0459 14.5252 23.133 15.842 21.9676 17.1189C20.8022 18.3958 19.4426 19.5929 17.8887 20.7102C16.3349 21.8275 14.6839 22.7851 12.9358 23.5832C14.3343 25.6582 15.8105 27.7331 17.3643 29.8081C18.9182 31.8831 20.336 34.0378 21.618 36.2724C22.9388 38.507 24.0265 40.8413 24.8811 43.2754C25.7745 45.7095 26.2213 48.3032 26.2213 51.0566H18.4132Z" fill="#E3E3E3"/>
</svg>
