<svg width="0" height="0" class="hidden">
  <symbol fill="none" xmlns="http://www.w3.org/2000/svg" viewBox="0 0 59 59" id="ic_close">
    <path d="M29.4999 24.3335L46.2223 8L51 12.6667L34.2777 29.0001L51 45.3334L46.2223 50L29.4999 33.6668L12.7778 50L8 45.3334L24.7222 29.0001L8 12.6667L12.7778 8L29.4999 24.3335Z" fill="currentColor"></path>
  </symbol>
  <symbol fill="none" xmlns="http://www.w3.org/2000/svg" viewBox="0 0 100 100" id="ic_corner ornament">
    <path d="M99.9986 0H44.3049V1.2106H99.9986V0Z" fill="currentColor"></path>
    <path d="M99.9986 12.748H44.3049V13.9586H99.9986V12.748Z" fill="currentColor"></path>
    <path d="M47.3321 2.96802H44.3056V5.99452H47.3321V2.96802Z" fill="currentColor"></path>
    <path d="M47.3321 7.96191H44.3056V10.9884H47.3321V7.96191Z" fill="currentColor"></path>
    <path d="M53.1843 2.96802H50.1578V5.99452H53.1843V2.96802Z" fill="currentColor"></path>
    <path d="M53.1843 7.96191H50.1578V10.9884H53.1843V7.96191Z" fill="currentColor"></path>
    <path d="M59.0358 2.96802H56.0093V5.99452H59.0358V2.96802Z" fill="currentColor"></path>
    <path d="M59.0358 7.96191H56.0093V10.9884H59.0358V7.96191Z" fill="currentColor"></path>
    <path d="M64.8884 2.96802H61.8619V5.99452H64.8884V2.96802Z" fill="currentColor"></path>
    <path d="M64.8884 7.96191H61.8619V10.9884H64.8884V7.96191Z" fill="currentColor"></path>
    <path d="M70.7398 2.96802H67.7133V5.99452H70.7398V2.96802Z" fill="currentColor"></path>
    <path d="M70.7398 7.96191H67.7133V10.9884H70.7398V7.96191Z" fill="currentColor"></path>
    <path d="M76.5911 2.96802H73.5646V5.99452H76.5911V2.96802Z" fill="currentColor"></path>
    <path d="M76.5911 7.96191H73.5646V10.9884H76.5911V7.96191Z" fill="currentColor"></path>
    <path d="M82.4437 2.96802H79.4172V5.99452H82.4437V2.96802Z" fill="currentColor"></path>
    <path d="M82.4437 7.96191H79.4172V10.9884H82.4437V7.96191Z" fill="currentColor"></path>
    <path d="M88.2951 2.96802H85.2686V5.99452H88.2951V2.96802Z" fill="currentColor"></path>
    <path d="M88.2951 7.96191H85.2686V10.9884H88.2951V7.96191Z" fill="currentColor"></path>
    <path d="M94.1477 2.96802H91.1212V5.99452H94.1477V2.96802Z" fill="currentColor"></path>
    <path d="M94.1477 7.96191H91.1212V10.9884H94.1477V7.96191Z" fill="currentColor"></path>
    <path d="M99.999 2.96802H96.9725V5.99452H99.999V2.96802Z" fill="currentColor"></path>
    <path d="M99.999 7.96191H96.9725V10.9884H99.999V7.96191Z" fill="currentColor"></path>
    <path d="M1.21066 44.3052H6.10352e-05V99.9989H1.21066V44.3052Z" fill="currentColor"></path>
    <path d="M13.9586 44.3052H12.748V99.9989H13.9586V44.3052Z" fill="currentColor"></path>
    <path d="M2.97021 96.9737V100H5.99672V96.9737H2.97021Z" fill="currentColor"></path>
    <path d="M7.96393 96.9737V100H10.9904V96.9737H7.96393Z" fill="currentColor"></path>
    <path d="M5.99672 91.1211H2.97021V94.1476H5.99672V91.1211Z" fill="currentColor"></path>
    <path d="M10.9904 91.1211H7.96393V94.1476H10.9904V91.1211Z" fill="currentColor"></path>
    <path d="M5.99672 85.2686H2.97021V88.2951H5.99672V85.2686Z" fill="currentColor"></path>
    <path d="M10.9904 85.2686H7.96393V88.2951H10.9904V85.2686Z" fill="currentColor"></path>
    <path d="M5.99672 79.416H2.97021V82.4425H5.99672V79.416Z" fill="currentColor"></path>
    <path d="M10.9904 79.416H7.96393V82.4425H10.9904V79.416Z" fill="currentColor"></path>
    <path d="M5.99672 73.5659H2.97021V76.5924H5.99672V73.5659Z" fill="currentColor"></path>
    <path d="M10.9904 73.5659H7.96393V76.5924H10.9904V73.5659Z" fill="currentColor"></path>
    <path d="M5.99672 67.7134H2.97021V70.7399H5.99672V67.7134Z" fill="currentColor"></path>
    <path d="M10.9904 67.7134H7.96393V70.7399H10.9904V67.7134Z" fill="currentColor"></path>
    <path d="M5.99672 61.8608H2.97021V64.8873H5.99672V61.8608Z" fill="currentColor"></path>
    <path d="M10.9904 61.8608H7.96393V64.8873H10.9904V61.8608Z" fill="currentColor"></path>
    <path d="M5.99672 56.0103H2.97021V59.0368H5.99672V56.0103Z" fill="currentColor"></path>
    <path d="M10.9904 56.0103H7.96393V59.0368H10.9904V56.0103Z" fill="currentColor"></path>
    <path d="M5.99672 50.1582H2.97021V53.1847H5.99672V50.1582Z" fill="currentColor"></path>
    <path d="M10.9904 50.1582H7.96393V53.1847H10.9904V50.1582Z" fill="currentColor"></path>
    <path d="M2.97021 44.3055V47.332H5.99672V44.3055H2.97021Z" fill="currentColor"></path>
    <path d="M7.96393 44.3055V47.332H10.9904V44.3055H7.96393Z" fill="currentColor"></path>
    <path d="M33.004 24.5588C33.9858 23.0069 41.2803 20.6401 41.2803 20.6401C41.2803 20.6401 33.9858 18.2734 33.004 16.7214C33.004 16.7214 38.8954 13.2058 40.4383 8.71692C40.4383 8.71692 38.1938 11.9432 33.8453 12.5043C32.073 12.7331 29.768 13.0085 27.5702 13.71C28.2717 11.5122 28.5472 9.20722 28.776 7.4349C29.3371 3.08642 32.5633 0.841972 32.5633 0.841972C28.0744 2.38488 24.5588 8.27627 24.5588 8.27627C23.0069 7.29447 20.6401 0 20.6401 0C20.6401 0 18.2734 7.29447 16.7214 8.27627C16.7214 8.27627 13.2058 2.38488 8.71693 0.841972C8.71693 0.841972 11.9432 3.08642 12.5043 7.4349C12.7331 9.20722 13.0085 11.5122 13.71 13.71C11.5122 13.0085 9.2072 12.7331 7.43488 12.5043C3.0864 11.9432 0.841967 8.71692 0.841967 8.71692C2.38488 13.2058 8.27625 16.7214 8.27625 16.7214C7.29446 18.2734 0 20.6401 0 20.6401C0 20.6401 7.29446 23.0069 8.27625 24.5588C8.27625 24.5588 2.38488 28.0744 0.841967 32.5633C0.841967 32.5633 3.0864 29.3371 7.43488 28.776C9.2072 28.5472 11.5122 28.2718 13.71 27.5702C13.0085 29.7681 12.7331 32.073 12.5043 33.8454C11.9432 38.1938 8.71693 40.4383 8.71693 40.4383C13.2058 38.8954 16.7214 33.004 16.7214 33.004C18.2734 33.9858 20.6401 41.2803 20.6401 41.2803C20.6401 41.2803 23.0069 33.9858 24.5588 33.004C24.5588 33.004 28.0744 38.8954 32.5633 40.4383C32.5633 40.4383 29.3371 38.1938 28.776 33.8454C28.5472 32.073 28.2717 29.7681 27.5702 27.5702C29.768 28.2718 32.073 28.5472 33.8453 28.776C38.1938 29.3371 40.4383 32.5633 40.4383 32.5633C38.8954 28.0744 33.004 24.5588 33.004 24.5588ZM20.6401 28.1876C16.4714 28.1876 13.092 24.8082 13.092 20.6395C13.092 16.4708 16.4714 13.0914 20.6401 13.0914C24.8088 13.0914 28.1882 16.4708 28.1882 20.6395C28.1882 24.8082 24.8088 28.1876 20.6401 28.1876Z" fill="currentColor"></path>
    <path d="M20.6401 24.0503C22.5236 24.0503 24.0504 22.5234 24.0504 20.64C24.0504 18.7566 22.5236 17.2297 20.6401 17.2297C18.7567 17.2297 17.2299 18.7566 17.2299 20.64C17.2299 22.5234 18.7567 24.0503 20.6401 24.0503Z" fill="currentColor"></path>
  </symbol>
  <symbol fill="none" xmlns="http://www.w3.org/2000/svg" viewBox="0 0 18 18" id="ic_location">
    <path d="M13.773 13.023L9 17.7959L4.22703 13.023C1.59099 10.3869 1.59099 6.11307 4.22703 3.47703C6.86307 0.84099 11.1369 0.84099 13.773 3.47703C16.409 6.11307 16.409 10.3869 13.773 13.023ZM9 9.75C9.82845 9.75 10.5 9.07845 10.5 8.25C10.5 7.42157 9.82845 6.75 9 6.75C8.17155 6.75 7.5 7.42157 7.5 8.25C7.5 9.07845 8.17155 9.75 9 9.75Z" fill="currentColor"></path>
  </symbol>
  <symbol fill="none" xmlns="http://www.w3.org/2000/svg" viewBox="0 0 18 18" id="ic_max">
    <path fill-rule="evenodd" clip-rule="evenodd" d="M9.50355 15.8828C8.07679 15.8828 7.41374 15.6836 6.26122 14.8867C5.53221 15.7832 3.2237 16.4838 3.12303 15.2851C3.12303 14.3853 2.91474 13.6249 2.67869 12.7947C2.3975 11.772 2.07812 10.6331 2.07812 8.98281C2.07812 5.04138 5.45931 2.07617 9.46536 2.07617C13.4749 2.07617 16.6165 5.18748 16.6165 9.01934C16.623 10.8312 15.8777 12.5715 14.5441 13.8583C13.2106 15.145 11.3978 15.8732 9.50355 15.8828ZM9.56256 5.48301C7.61161 5.38671 6.09112 6.67839 5.75439 8.70389C5.47667 10.3807 5.96962 12.4229 6.38966 12.5291C6.59101 12.5756 7.09784 12.1838 7.41374 11.8816C7.9361 12.2268 8.54438 12.4341 9.17723 12.4826C10.149 12.5273 11.1003 12.2056 11.8267 11.5865C12.5531 10.9675 12.9965 10.1006 13.0618 9.17208C13.0998 8.24168 12.7544 7.3342 12.1 6.6449C11.4456 5.9556 10.5344 5.53957 9.56256 5.48633V5.48301Z" fill="currentColor"></path>
  </symbol>
  <symbol fill="none" xmlns="http://www.w3.org/2000/svg" viewBox="0 0 59 59" id="ic_menu">
    <path d="M42.25 44.2506C43.3546 44.2506 44.25 45.1461 44.25 46.2506V47.1673C44.25 48.2719 43.3546 49.1673 42.25 49.1673H16.75C15.6454 49.1673 14.75 48.2719 14.75 47.1673V46.2506C14.75 45.1461 15.6454 44.2506 16.75 44.2506H42.25ZM49.625 27.0423C50.7296 27.0423 51.625 27.9377 51.625 29.0423V29.959C51.625 31.0636 50.7296 31.959 49.625 31.959H9.375C8.27043 31.959 7.375 31.0636 7.375 29.959V29.0423C7.375 27.9377 8.27043 27.0423 9.375 27.0423H49.625ZM42.25 9.83398C43.3546 9.83398 44.25 10.7294 44.25 11.834V12.7507C44.25 13.8552 43.3546 14.7507 42.25 14.7507H16.75C15.6454 14.7507 14.75 13.8552 14.75 12.7507V11.834C14.75 10.7294 15.6454 9.83398 16.75 9.83398H42.25Z" fill="currentColor"></path>
  </symbol>
  <symbol fill="none" xmlns="http://www.w3.org/2000/svg" viewBox="0 0 26 26" id="ic_minus">
    <path d="M20.5827 11.916H5.41602V14.0827H20.5827V11.916Z" fill="currentColor"></path>
  </symbol>
  <symbol fill="none" xmlns="http://www.w3.org/2000/svg" viewBox="0 0 18 18" id="ic_phone">
    <path d="M15.75 12.315V14.9671C15.75 15.3608 15.4456 15.6875 15.0529 15.7153C14.7248 15.7384 14.4572 15.75 14.25 15.75C7.62255 15.75 2.25 10.3774 2.25 3.75C2.25 3.54278 2.26159 3.27515 2.28476 2.94713C2.31253 2.55441 2.6392 2.25 3.03289 2.25H5.68508C5.87758 2.25 6.03882 2.39582 6.05815 2.58735C6.0755 2.7593 6.09163 2.89735 6.10655 3.00151C6.25826 4.06104 6.56815 5.06952 7.01152 6.00227C7.08269 6.15199 7.03628 6.33119 6.90139 6.42754L5.28266 7.58385C6.26814 9.88583 8.11417 11.7319 10.4162 12.7174L11.5703 11.1014C11.6679 10.9649 11.8492 10.918 12.0007 10.9899C12.9334 11.4329 13.9418 11.7425 15.0012 11.8938C15.1047 11.9087 15.2419 11.9246 15.4126 11.9419C15.6042 11.9612 15.75 12.1225 15.75 12.315Z" fill="currentColor"></path>
  </symbol>
  <symbol fill="none" xmlns="http://www.w3.org/2000/svg" viewBox="0 0 26 26" id="ic_plus">
    <path d="M11.916 11.916V5.41602H14.0827V11.916H20.5827V14.0827H14.0827V20.5827H11.916V14.0827H5.41602V11.916H11.916Z" fill="currentColor"></path>
  </symbol>
  <symbol fill="none" xmlns="http://www.w3.org/2000/svg" viewBox="0 0 18 18" id="ic_tg">
    <path d="M1.61138 8.85743C5.54691 7.14281 8.17123 6.01241 9.48426 5.46625C13.2334 3.90687 14.0124 3.636 14.5201 3.62705C14.6318 3.62508 14.8816 3.65276 15.0433 3.78401C15.1798 3.89483 15.2174 4.04454 15.2354 4.1496C15.2534 4.25468 15.2758 4.49403 15.258 4.68105C15.0548 6.81573 14.1757 11.996 13.7285 14.3869C13.5393 15.3986 13.1667 15.7377 12.8059 15.7709C12.022 15.8431 11.4266 15.2528 10.6673 14.7551C9.47916 13.9763 8.80791 13.4914 7.65456 12.7313C6.32169 11.853 7.18574 11.3702 7.94533 10.5813C8.14416 10.3748 11.5984 7.23298 11.6652 6.94797C11.6735 6.91232 11.6813 6.77945 11.6023 6.70929C11.5234 6.63912 11.407 6.66312 11.3229 6.6822C11.2037 6.70925 9.30553 7.9638 5.62847 10.446C5.08969 10.8159 4.60169 10.9962 4.16445 10.9868C3.68243 10.9763 2.75522 10.7142 2.06593 10.4902C1.22049 10.2153 0.548556 10.07 0.607067 9.6033C0.637543 9.36023 0.972312 9.1116 1.61138 8.85743Z" fill="currentColor"></path>
  </symbol>
  <symbol fill="none" xmlns="http://www.w3.org/2000/svg" viewBox="0 0 18 18" id="ic_user">
    <path d="M3 16.5C3 13.1863 5.68629 10.5 9 10.5C12.3137 10.5 15 13.1863 15 16.5H3ZM9 9.75C6.51375 9.75 4.5 7.73625 4.5 5.25C4.5 2.76375 6.51375 0.75 9 0.75C11.4862 0.75 13.5 2.76375 13.5 5.25C13.5 7.73625 11.4862 9.75 9 9.75Z" fill="currentColor"></path>
  </symbol>
  <symbol fill="none" xmlns="http://www.w3.org/2000/svg" viewBox="0 0 18 18" id="ic_video_play">
    <path d="M5.81395 4.07843L13.6947 8.67554C13.8736 8.77986 13.934 9.00951 13.8297 9.18839C13.7971 9.24426 13.7506 9.29076 13.6947 9.32339L5.81395 13.9205C5.63506 14.0248 5.40544 13.9644 5.30108 13.7855C5.26762 13.7281 5.25 13.663 5.25 13.5966V4.40234C5.25 4.19523 5.41789 4.02734 5.625 4.02734C5.6914 4.02734 5.7566 4.04497 5.81395 4.07843Z" fill="currentColor"></path>
  </symbol>
  <symbol fill="none" xmlns="http://www.w3.org/2000/svg" viewBox="0 0 18 18" id="ic_whatsapp">
    <path d="M9.00002 1.5C13.1421 1.5 16.5 4.85786 16.5 9C16.5 13.1421 13.1421 16.5 9.00002 16.5C7.62459 16.5 6.33565 16.1298 5.22741 15.4835L1.50314 16.5L2.51711 12.7736C1.87047 11.6652 1.5 10.3759 1.5 9C1.5 4.85786 4.85786 1.5 9.00002 1.5ZM6.2935 5.48125C6.19646 5.48807 6.10132 5.51177 6.01469 5.55608C5.94971 5.58933 5.88938 5.63738 5.79458 5.72689C5.70507 5.81141 5.65319 5.88523 5.59853 5.9564C5.32126 6.3174 5.17223 6.76054 5.175 7.21574C5.17651 7.5837 5.27209 7.9413 5.42303 8.2752C5.72913 8.9523 6.23392 9.6681 6.90072 10.3319C7.06089 10.4914 7.21781 10.6526 7.38702 10.8015C8.21461 11.5302 9.20087 12.0556 10.2673 12.3362C10.2673 12.3362 10.6873 12.4007 10.6934 12.401C10.8326 12.4085 10.9715 12.3985 11.1107 12.3913C11.3292 12.3801 11.5425 12.321 11.7356 12.2182C11.8597 12.1521 11.9184 12.1192 12.0226 12.0535C12.0226 12.0535 12.0545 12.0319 12.1162 11.986C12.2174 11.9106 12.28 11.8575 12.3642 11.7701C12.4263 11.7056 12.4797 11.6293 12.521 11.5435C12.5796 11.4211 12.6386 11.1874 12.6621 10.9934C12.68 10.8452 12.6746 10.7642 12.6727 10.7141C12.6695 10.6334 12.6028 10.5503 12.5297 10.5151L12.0936 10.319C12.0936 10.319 11.4415 10.0352 11.0426 9.85328C11.0011 9.8343 10.9556 9.82553 10.91 9.82275C10.8099 9.8166 10.6978 9.8427 10.6265 9.91785C10.6227 9.91635 10.5731 9.95925 10.0304 10.6166C10.0005 10.6524 9.93039 10.7302 9.80911 10.7229C9.79081 10.7216 9.77259 10.719 9.75482 10.7143C9.70569 10.7014 9.65784 10.6843 9.61104 10.6645C9.51826 10.6251 9.48571 10.6102 9.42234 10.5829C8.98937 10.3937 8.59202 10.1407 8.24079 9.831C8.14659 9.74805 8.05899 9.65872 7.96869 9.5712C7.65354 9.26572 7.39553 8.94082 7.20359 8.62035C7.19312 8.60288 7.17697 8.5776 7.15957 8.54932C7.12817 8.49825 7.09354 8.4375 7.08268 8.3958C7.0548 8.28547 7.12876 8.19683 7.12876 8.19683C7.12876 8.19683 7.31131 7.99725 7.39613 7.88873C7.47773 7.78425 7.54816 7.6821 7.59301 7.60928C7.68136 7.46725 7.70934 7.32046 7.66292 7.20722C7.4525 6.69424 7.2354 6.18402 7.01166 5.67671C6.9675 5.57659 6.83615 5.50384 6.71671 5.49005C6.67625 5.48538 6.63583 5.48068 6.59521 5.47801C6.49466 5.47311 6.39391 5.47419 6.2935 5.48125Z" fill="currentColor"></path>
  </symbol>
</svg>