<svg width="100" height="24" viewBox="0 0 100 24" fill="none" xmlns="http://www.w3.org/2000/svg">
<path d="M0 6.60419e-05L0 2.08154L100 2.08154V6.60419e-05L0 6.60419e-05Z" fill="#FC5A06" fill-opacity="0.18"/>
<path d="M0 21.918L0 23.9995L100 23.9995V21.918L0 21.918Z" fill="#FC5A06" fill-opacity="0.18"/>
<path d="M8.16542 15.6841C5.84719 15.6841 3.96805 13.8847 3.96805 11.6648C3.96805 9.44492 5.84719 7.64548 8.16542 7.64548C10.4837 7.64548 12.3628 9.44492 12.3628 11.6648C12.3628 13.8847 10.4837 15.6841 8.16542 15.6841ZM8.16542 3.84575L0 11.6648L8.16542 19.4839L16.3308 11.6648L8.16542 3.84575Z" fill="#FC5A06" fill-opacity="0.18"/>
<path d="M24.8998 15.6841C22.5816 15.6841 20.7024 13.8847 20.7024 11.6648C20.7024 9.44492 22.5816 7.64548 24.8998 7.64548C27.218 7.64548 29.0972 9.44492 29.0972 11.6648C29.0972 13.8847 27.218 15.6841 24.8998 15.6841ZM24.8998 3.84575L16.7344 11.6648L24.8998 19.4839L33.0652 11.6648L24.8998 3.84575Z" fill="#FC5A06" fill-opacity="0.18"/>
<path d="M41.6342 15.6841C39.3159 15.6841 37.4368 13.8847 37.4368 11.6648C37.4368 9.44492 39.3159 7.64548 41.6342 7.64548C43.9524 7.64548 45.8315 9.44492 45.8315 11.6648C45.8315 13.8847 43.9524 15.6841 41.6342 15.6841ZM41.6342 3.84575L33.4688 11.6648L41.6342 19.4839L49.7996 11.6648L41.6342 3.84575Z" fill="#FC5A06" fill-opacity="0.18"/>
<path d="M58.3665 15.6841C56.0482 15.6841 54.1691 13.8847 54.1691 11.6648C54.1691 9.44492 56.0482 7.64548 58.3665 7.64548C60.6847 7.64548 62.5638 9.44492 62.5638 11.6648C62.5638 13.8847 60.6847 15.6841 58.3665 15.6841ZM58.3665 3.84575L50.201 11.6648L58.3665 19.4839L66.5319 11.6648L58.3665 3.84575Z" fill="#FC5A06" fill-opacity="0.18"/>
<path d="M75.101 15.6841C72.7827 15.6841 70.9036 13.8847 70.9036 11.6648C70.9036 9.44492 72.7827 7.64548 75.101 7.64548C77.4192 7.64548 79.2983 9.44492 79.2983 11.6648C79.2983 13.8847 77.4192 15.6841 75.101 15.6841ZM75.101 3.84575L66.9355 11.6648L75.101 19.4839L83.2664 11.6648L75.101 3.84575Z" fill="#FC5A06" fill-opacity="0.18"/>
<path d="M91.8334 15.6841C89.5152 15.6841 87.636 13.8847 87.636 11.6648C87.636 9.44492 89.5152 7.64548 91.8334 7.64548C94.1516 7.64548 96.0308 9.44492 96.0308 11.6648C96.0308 13.8847 94.1516 15.6841 91.8334 15.6841ZM91.8334 3.84575L83.668 11.6648L91.8334 19.4839L99.9988 11.6648L91.8334 3.84575Z" fill="#FC5A06" fill-opacity="0.18"/>
</svg>
