<svg width="42" height="42" viewBox="0 0 42 42" fill="none" xmlns="http://www.w3.org/2000/svg">
<path d="M20.9928 42V41.9857C21.3332 40.3876 22.4419 40.3075 23.399 39.082C24.2139 38.0391 23.9537 36.4422 22.5543 35.1285C21.2873 33.9379 21.3481 32.4795 21.3481 32.4795V30.4447C23.1686 35.1292 26.6716 35.9832 26.6716 35.9832C22.5077 33.3559 21.5543 28.4112 21.3792 25.405C22.191 25.331 22.9326 25.0174 23.5344 24.5348C24.1257 25.6689 24.6332 27.5416 24.4735 31.2124C24.2686 35.9217 29.425 35.9348 29.425 35.9348C28.8878 34.6683 29.348 34.0149 30.0778 31.2516C30.1648 30.9217 30.2281 30.6 30.2666 30.2851C30.5877 30.2466 30.9157 30.1832 31.2517 30.095C34.0156 29.3652 34.6684 28.905 35.9349 29.4422C35.9349 29.4422 35.8206 24.1428 30.7523 24.436C27.7952 24.6074 25.999 24.3341 24.8648 23.9137C24.7301 23.8019 24.6052 23.6894 24.4885 23.577C24.9909 22.9739 25.3214 22.2223 25.4033 21.3969C28.4089 21.5708 33.3554 22.5242 35.9833 26.6882C35.9833 26.6882 35.1293 23.1857 30.4449 21.3652H32.4796C32.4796 21.3652 33.938 21.3043 35.1287 22.5714C36.4423 23.9702 38.0392 24.231 39.082 23.4155C40.3069 22.459 40.387 21.3503 41.9857 21.0099H42C41.9975 21.0099 41.9956 21.0093 41.9925 21.0087C41.9956 21.0081 41.9975 21.0074 42 21.0068H41.9857C40.3876 20.6665 40.3075 19.5584 39.082 18.6012C38.0392 17.7863 36.4423 18.0466 35.1287 19.446C33.938 20.713 32.4796 20.6522 32.4796 20.6522H30.4449C35.1293 18.8317 35.9833 15.3285 35.9833 15.3285C33.356 19.4925 28.4114 20.4459 25.4052 20.6211C25.3313 19.8093 25.0176 19.0677 24.535 18.4658C25.6692 17.8745 27.5418 17.3671 31.2126 17.5267C35.9218 17.7317 35.9349 12.5751 35.9349 12.5751C34.6684 13.1124 34.015 12.6515 31.2517 11.9223C30.9219 11.8354 30.6002 11.772 30.2853 11.7335C30.2467 11.4124 30.1834 11.0845 30.0952 10.7484C29.3654 7.98447 28.9052 7.33165 29.4424 6.06519C29.4424 6.06519 24.1431 6.17947 24.4363 11.2478C24.6077 14.2049 24.3344 16.0012 23.9133 17.1354C23.8015 17.2708 23.6891 17.395 23.5767 17.5118C22.9736 17.0093 22.2214 16.6789 21.3966 16.5969C21.5705 13.5913 22.5239 8.64469 26.6884 6.01674C26.6884 6.01674 23.186 6.87077 21.3655 11.5552V9.5205C21.3655 9.5205 21.3047 8.06211 22.5717 6.87142C23.9705 5.55776 24.2313 3.96087 23.4158 2.91801C22.4593 1.69317 21.3506 1.61301 21.0102 0.0142542V0C21.0102 0.00248447 21.0096 0.00432478 21.009 0.00743037C21.0084 0.00432478 21.0078 0.00248447 21.0071 0V0.0142542C20.6668 1.61239 19.5581 1.69255 18.601 2.91801C17.7861 3.96087 18.0463 5.55776 19.4457 6.87142C20.7127 8.06211 20.6519 9.5205 20.6519 9.5205V11.5552C18.8314 6.87077 15.3283 6.01674 15.3283 6.01674C19.4922 8.64407 20.4456 13.5888 20.6208 16.595C19.809 16.6689 19.0674 16.9826 18.4656 17.4652C17.8743 16.331 17.3668 14.4584 17.5264 10.7876C17.7314 6.07825 12.575 6.06519 12.575 6.06519C13.1122 7.33165 12.652 7.98509 11.9222 10.7484C11.8352 11.0783 11.7725 11.4 11.7334 11.7149C11.4122 11.7534 11.0843 11.8168 10.7483 11.905C7.98435 12.6348 7.33156 13.095 6.06512 12.5577C6.06512 12.5577 6.1794 17.8571 11.2476 17.5639C14.2047 17.3925 16.001 17.6658 17.1351 18.087C17.2699 18.1988 17.3948 18.3112 17.5115 18.4236C17.0091 19.0267 16.6786 19.7789 16.5966 20.6037C13.5911 20.4298 8.64458 19.4764 6.01667 15.3118C6.01667 15.3118 6.87071 18.8143 11.5551 20.6348H9.52036C9.52036 20.6348 8.06199 20.6956 6.87132 19.4286C5.55767 18.0298 3.96081 17.7689 2.91797 18.5844C1.69314 19.541 1.61301 20.6497 0.0142729 20.99H0C0.00248444 20.99 0.00434367 20.9907 0.00744921 20.9913C0.00434367 20.9919 0.00186333 20.9925 0 20.9931H0.0142729C1.61239 21.3335 1.69252 22.4422 2.91797 23.3988C3.96081 24.2137 5.55767 23.9534 6.87132 22.554C8.06199 21.2869 9.52036 21.3478 9.52036 21.3478H11.5551C6.87071 23.1683 6.01667 26.6714 6.01667 26.6714C8.64396 22.5074 13.5886 21.554 16.5948 21.3789C16.6687 22.1907 16.9823 22.9323 17.465 23.5341C16.3308 24.1254 14.4582 24.6329 10.7874 24.4733C6.07816 24.2683 6.06512 29.4248 6.06512 29.4248C7.33156 28.8876 7.98497 29.3478 10.7483 30.0776C11.0781 30.1646 11.3998 30.2279 11.7147 30.2664C11.7532 30.5875 11.8166 30.9155 11.9048 31.2516C12.6346 34.0155 13.0948 34.6683 12.5576 35.9348C12.5576 35.9348 17.8569 35.8205 17.5637 30.7522C17.3923 27.795 17.6656 25.9987 18.0861 24.8646C18.1979 24.7298 18.3103 24.6049 18.4227 24.4882C19.0258 24.9907 19.7773 25.3211 20.6028 25.4031C20.4289 28.4087 19.4755 33.3553 15.311 35.9832C15.311 35.9832 18.814 35.1292 20.6345 30.4447V32.4795C20.6345 32.4795 20.6953 33.9379 19.4283 35.1285C18.0295 36.4422 17.7687 38.0391 18.5842 39.082C19.5407 40.3068 20.6494 40.3876 20.9897 41.9857V42C20.9897 41.9975 20.9904 41.9956 20.991 41.9925C20.9916 41.9963 20.9922 41.9981 20.9928 42Z" fill="#FC5A06"/>
</svg>
